<svg width="100" height="101" viewBox="0 0 100 101" fill="none" xmlns="http://www.w3.org/2000/svg">
<path fill-rule="evenodd" clip-rule="evenodd" d="M50 100.5C77.6142 100.5 100 78.1142 100 50.5C100 22.8858 77.6142 0.5 50 0.5C22.3858 0.5 0 22.8858 0 50.5C0 78.1142 22.3858 100.5 50 100.5Z" fill="#0057AE"/>
<g clip-path="url(#clip0_10_5663)">
<path d="M62.7676 77.2973H57.5202C56.7314 77.2973 56.0854 76.9369 55.874 76.0671L49.5518 53.7743L43.2298 76.0728C43.0184 76.9426 42.3667 77.3031 41.5836 77.3031H36.3361C35.473 77.3031 34.97 76.9426 34.6899 76.0728C31.2945 66.6716 28.9966 57.3275 27.0531 47.9206C26.8416 46.9765 27.2646 46.3242 28.2707 46.3242H32.9465C33.8096 46.3242 34.3812 46.759 34.5356 47.5544C35.7531 54.2148 37.1993 61.0812 39.1371 67.8217L44.7389 47.5544C44.9503 46.759 45.5277 46.3242 46.3851 46.3242H52.7073C53.5704 46.3242 54.1419 46.759 54.3535 47.5544L59.9552 67.8217C61.8988 61.0983 63.345 54.2148 64.5567 47.5544C64.6997 46.759 65.277 46.3242 66.1458 46.3242H70.8217C71.822 46.3242 72.2565 46.9765 72.0392 47.9206C70.0958 57.3275 67.8036 66.6716 64.4196 76.0728C64.1281 76.9426 63.6307 77.3031 62.7733 77.3031L62.7676 77.2973Z" fill="white"/>
<path d="M37.988 30.6619C41.0747 27.5664 45.1846 25.8612 49.5574 25.8555C53.9246 25.8555 58.023 27.5549 61.1099 30.6448C62.7161 32.2527 63.9392 34.1295 64.7509 36.1779C64.9339 36.6529 65.3969 36.9618 65.9057 36.9618H70.8445C71.6733 36.9618 72.2791 36.1665 72.0448 35.3768C70.9416 31.7148 68.9524 28.3674 66.1743 25.5808C61.7271 21.1463 55.8339 18.6973 49.5574 18.6973C43.2754 18.6973 37.3706 21.1463 32.9349 25.598C30.1569 28.3789 28.1676 31.732 27.0701 35.3768C26.8358 36.1665 27.4417 36.9618 28.2705 36.9618H33.2093C33.718 36.9618 34.1753 36.6529 34.3639 36.1779C35.1699 34.1353 36.3875 32.2584 37.988 30.6562V30.6619Z" fill="#FF5B00"/>
</g>
<defs>
<clipPath id="clip0_10_5663">
<rect width="46" height="60" fill="white" transform="translate(27 18)"/>
</clipPath>
</defs>
</svg>
