<svg width="100" height="100" viewBox="0 0 100 100" fill="none" xmlns="http://www.w3.org/2000/svg">
<path fill-rule="evenodd" clip-rule="evenodd" d="M50 100C77.6142 100 100 77.6142 100 50C100 22.3858 77.6142 0 50 0C22.3858 0 0 22.3858 0 50C0 77.6142 22.3858 100 50 100Z" fill="#F8FAFA" fill-opacity="0.08"/>
<path fill-rule="evenodd" clip-rule="evenodd" d="M50 99C77.062 99 99 77.062 99 50C99 22.938 77.062 1 50 1C22.938 1 1 22.938 1 50C1 77.062 22.938 99 50 99ZM50 100C77.6142 100 100 77.6142 100 50C100 22.3858 77.6142 0 50 0C22.3858 0 0 22.3858 0 50C0 77.6142 22.3858 100 50 100Z" fill="#242B2E" fill-opacity="0.16"/>
<g clip-path="url(#clip0_63_16707)">
<path d="M24.3645 34.4141C20.1853 43.9054 19.0719 56.5874 31.5611 55.0968C31.2383 66.1593 32.4082 67.8433 41.9284 57.2884C45.1071 55.4675 39.7419 61.8165 37.0634 63.2104C35.4901 65.0555 19.9029 73.3947 25.4617 69.3016C32.1097 67.8514 32.3114 61.9132 31.3674 55.4997C18.5475 56.7647 19.4188 43.8571 24.3645 34.4141Z" fill="#D3DCE8"/>
<path d="M22.5571 74.1202C22.6943 86.5847 45.6879 73.524 36.3291 78.9384C31.9805 80.8318 30.8833 81.0816 26.2523 79.6797C6.6875 74.2975 57.3784 56.62 37.1601 54.5574C29.4714 51.2862 66.5113 50.416 63.7762 53.6389C62.4934 54.5735 57.3461 54.1948 57.5962 56.4186C59.1614 59.722 64.3329 56.193 66.3176 57.2082C67.6489 59.7865 68.0442 67.5294 64.22 68.2143C55.9665 68.6252 57.459 83.8291 40.2259 77.7943C39.1126 76.207 40.9601 76.1506 42.0977 76.5615C56.4828 79.4138 61.8722 62.5501 47.3418 68.166C44.744 69.1489 42.0331 70.8409 39.8951 72.7102C38.9915 70.0675 45.0344 68.8025 46.8497 66.7962C48.423 61.6558 55.3694 59.3031 55.5308 55.1456C55.1113 53.663 60.1618 54.4043 59.1049 53.4374C57.6607 52.3094 37.62 53.518 44.1792 54.2351C44.6714 57.6111 39.5402 61.261 37.2247 63.8715C33.6021 68.5527 25.3164 68.7058 22.5571 74.1202Z" fill="#BFCCDE"/>
<path d="M45.2684 54.7332C28.2047 54.1208 54.9257 51.3572 60.3877 54.0161C55.7002 55.2085 50.0365 54.8701 45.2684 54.7332Z" fill="#D3DCE8"/>
<path d="M22.1537 41.2224C23.3558 23.843 61.1945 14.6417 42.1703 26.5261C38.3461 26.4858 31.4238 40.8517 37.152 38.9663C45.4216 33.2377 66.8824 42.5035 65.9465 28.0005C70.1337 24.3184 84.3979 52.728 72.2798 54.7101C71.3681 54.8954 70.9244 54.6859 71.7796 54.3314C74.8454 47.7728 78.3388 40.8114 70.8195 33.0443C64.4701 44.3566 47.3176 31.8841 38.9512 41.311C30.2943 51.1407 43.0255 53.8399 50.9966 52.3654C51.1822 52.4057 51.9244 52.4218 51.6501 52.7038C46.9465 55.0727 38.8463 50.5123 34.9979 54.6859C32.7711 54.6053 30.8429 52.6716 31.5529 50.4478C34.8284 43.2528 27.8335 33.3747 35.0624 27.356C38.7414 23.8027 31.8272 27.7346 30.1813 29.7892C24.1868 35.6387 19.0233 49.5051 24.6064 54.412C19.4752 52.8166 21.7745 45.5088 22.1537 41.2224Z" fill="#A6BBD0"/>
<path d="M39.75 21.1197C47.4549 17.1959 61.4608 21.023 67.3746 25.9782C59.5568 20.9505 49.0685 18.3481 39.75 21.1197Z" fill="#D3DCE8"/>
<path d="M52.5859 24.4385C85.729 32.5682 35.6191 39.6826 43.1626 30.1268C45.2683 27.0329 48.6407 24.2531 52.5859 24.4385Z" fill="#D3DCE8"/>
<path d="M24.8806 52.6303C24.3562 52.0421 23.4042 52.2436 23.8963 53.0493C24.5418 54.0162 26.8411 53.9356 27.4301 54.5802C14.3762 56.9248 31.8594 22.4642 32.3031 33.4059C30.8428 39.2635 35.611 46.104 31.9723 50.4227C31.5609 51.3331 31.8352 52.8318 30.4233 52.6062C28.9711 53.7019 26.5023 53.9436 24.8806 52.6223V52.6303Z" fill="#929AB3"/>
<path d="M58.7257 38.3779C62.0497 39.5462 66.0514 34.309 67.9232 38.4826C61.9126 48.1432 46.0913 32.1416 40.7342 43.7037C39.9032 46.1611 40.8714 49.7224 42.493 51.7044C44.2922 54.6775 35.1512 51.4144 35.6998 48.1673C35.6998 36.4844 49.9317 35.582 58.7338 38.3859L58.7257 38.3779Z" fill="#7EA7C4"/>
<path d="M55.9584 48.707C63.9699 50.9953 44.389 55.1367 41.3474 51.0597C43.7355 47.1601 51.7389 50.0606 55.9584 48.707Z" fill="#3391CB"/>
<path d="M62.6388 41.0605C69.2464 36.9433 73.0383 44.4204 70.6018 49.9395C68.2218 52.9449 65.4867 49.295 62.3483 50.0201C59.6133 51.7282 57.5156 49.9073 54.8774 49.5286C50.8757 49.859 46.7449 49.8831 42.7109 50.2215C40.6617 50.7452 40.5326 48.8276 40.4035 47.3209C39.9194 46.4024 39.0239 43.2118 41.0167 43.8966C43.7517 46.5313 52.2392 48.5537 55.6116 46.5958C58.8952 45.7095 58.8388 40.9074 62.6388 41.0605Z" fill="#5B89B4"/>
<path d="M40.9682 43.0664C41.7992 35.7022 64.9461 38.0307 58.3466 46.0395C56.8056 49.4397 38.9512 47.8685 40.9682 43.0664Z" fill="#88B4CF"/>
<path d="M75.0148 71.0749C77.8628 74.4992 72.3686 74.2898 70.1983 74.604C67.1567 75.023 63.6875 79.1241 61.3397 76.0543C60.662 74.6846 62.7677 75.023 63.5422 75.023C66.479 74.8054 68.3991 69.6085 64.6879 71.0588C66.1482 67.1672 71.9571 70.382 75.0148 71.083V71.0749Z" fill="#A6BBD0"/>
<path d="M64.2523 71.9999C66.1402 69.204 69.9725 69.7438 66.9631 73.9175C64.9704 77.0598 60.299 75.0938 64.2523 71.9999Z" fill="#7EA7C4"/>
<path d="M75.8377 77.1246C68.6895 76.8426 65.3817 84.0135 61.3154 76.198C61.7672 75.4567 63.3082 76.3994 63.9294 76.4961C67.6649 76.1416 70.5452 73.3377 74.8776 73.5472C77.3384 71.2267 72.78 70.6708 71.1987 70.3243C69.5286 69.3091 67.6649 69.0191 66.0029 70.2437C65.8173 70.3243 64.9863 70.977 65.0428 70.6466C68.6653 63.7094 80.5736 70.6788 75.8458 77.1326L75.8377 77.1246Z" fill="#BFCCDE"/>
<path d="M76.4672 76.6169C75.0069 81.8863 68.1814 82.6598 64.0022 79.9767C67.7538 81.7654 67.2052 76.2865 75.4829 77.0681C75.8379 77.0359 76.209 76.5847 76.4672 76.6169Z" fill="#D3DCE8"/>
<path d="M34.4089 54.8944C52.0777 54.0242 28.5597 73.0472 32.8195 57.5613C32.8518 56.3044 33.0939 55.0314 34.4089 54.8944Z" fill="#5B89B4"/>
<path d="M47.9792 67.1011C54.3448 65.9087 58.4191 52.2437 56.7329 62.8389C53.3121 68.1405 42.5576 66.6016 39.4595 71.734C36.0387 85.1895 60.9767 76.4909 60.5087 67.512C61.5737 66.6096 63.268 67.8665 64.8332 68.0438C65.5512 68.1486 66.0111 67.4959 66.4871 67.0608C68.4073 65.53 69.9321 67.6087 67.9474 68.777C65.648 71.0088 60.2506 75.1422 64.0264 78.4698C65.5673 80.7258 61.8157 78.5907 60.9767 78.2764C46.406 87.4133 25.2438 71.7259 47.9792 67.1011Z" fill="#D3DCE8"/>
<path d="M39.2657 74.546C39.9596 69.0268 52.0292 63.9588 56.2729 68.0358C58.7014 72.9184 50.5043 77.8655 45.236 76.802C43.0254 76.3911 38.9269 77.8655 39.2576 74.546H39.2657Z" fill="#A6BBD0"/>
<path d="M50.0364 68.2537C58.6933 63.4355 54.03 78.2043 42.8317 74.6269C42.0088 74.498 41.7345 73.8212 42.5574 73.4264C44.9939 72.1775 52.7472 74.498 49.6895 69.3897C49.5765 68.9788 49.6895 68.584 50.0364 68.2537Z" fill="#7EA7C4"/>
<path d="M49.4879 68.2775C50.9724 70.5174 46.1236 71.1539 44.4132 72.6687C33.9168 80.4358 44.3164 65.1352 49.4879 68.2775Z" fill="#929AB3"/>
<path d="M50.7546 70.4206C53.8366 72.9103 45.9865 74.6667 44.4939 72.451C44.6068 70.7348 49.2782 69.5343 50.7546 70.4206Z" fill="#5B89B4"/>
<path d="M23.7996 52.01C24.2433 51.3494 24.8242 52.2518 25.3002 52.429C26.8492 53.2428 32.6582 53.6215 32.6098 54.3063C30.6573 55.3941 22.9444 54.959 23.7996 52.002V52.01Z" fill="#5B89B4"/>
<path d="M67.9232 26.8394C75.5555 31.4079 80.9852 54.2661 74.9504 53.2912C79.6136 45.5804 74.5066 32.3747 66.955 27.9674C65.7045 42.6154 46.1801 33.4786 36.2001 39.5698C32.9003 38.756 37.3941 29.0793 39.3223 27.8627C42.2268 26.5816 44.8892 24.1886 47.2289 22.3355C41.6621 18.2102 24.5257 29.7239 22.7024 40.166C23.9287 23.6649 53.2718 12.264 67.9232 26.8394Z" fill="#BFCCDE"/>
<path d="M68.3669 26.9375C75.378 32.6178 81.4531 49.7151 75.7249 53.9935C80.7593 46.7582 74.668 33.907 68.3669 26.9375Z" fill="#D3DCE8"/>
<path d="M29.2132 52.7034C27.3979 50.4151 33.344 53.1949 34.8043 54.4437C34.0298 56.176 30.2862 53.6461 29.2132 52.7034Z" fill="#7EA7C4"/>
<path d="M74.9099 42.0206C78.5727 48.2085 70.2305 51.8906 73.0543 53.5987C72.7073 55.0329 65.8012 55.6855 65.6882 53.8405C72.3685 49.8683 70.7146 44.2121 66.7935 38.0564C66.487 37.5569 66.4305 37.0735 66.9872 36.6787C71.8199 33.6733 73.377 37.3313 74.9099 42.0206Z" fill="#929AB3"/>
<path d="M24.0334 54.0421C16.7884 46.7906 29.7536 23.32 37.5392 26.3576C29.4147 32.1185 21.0483 40.9089 23.6139 50.8998C22.3956 51.7458 22.9846 53.3008 24.0334 54.0421Z" fill="#7EA7C4"/>
<path d="M74.6275 39.8438C77.1931 50.2053 73.1511 36.9352 69.5044 33.4625C68.7379 31.0373 71.6505 32.5601 72.5057 34.0829C73.5626 35.8797 74.1031 37.8617 74.6275 39.8519V39.8438Z" fill="#7EA7C4"/>
<path d="M35.498 55.2567C36.9825 53.9998 41.2747 54.1771 42.622 55.289C43.4369 57.3999 40.4598 56.3122 39.4433 56.0302C38.2331 55.8207 35.6917 56.9004 35.498 55.2567Z" fill="#7EA7C4"/>
<path d="M34.9898 66.5127C38.1525 61.8556 42.3075 66.7624 37.8701 69.2521C36.2726 69.8564 33.82 68.2852 34.9898 66.5127Z" fill="#5B89B4"/>
<path d="M45.8736 54.9356C54.829 52.6232 53.8528 57.5784 46.9627 61.3169C44.8247 62.5013 45.3411 65.0957 44.3245 66.8925C42.5254 68.3831 38.6043 73.2738 36.668 71.3642C35.1674 69.9462 41.9606 64.9024 36.4341 65.9337C35.9903 66.0787 34.4816 66.7233 34.5865 65.9498C35.9258 64 38.6528 63.2668 40.2825 61.5425C42.5012 59.633 43.2353 56.2328 45.8816 54.9517L45.8736 54.9356Z" fill="#7EA7C4"/>
<path d="M40.944 60.2539C38.0234 67.6182 11.5686 74.1445 29.0276 79.6959C31.5045 78.6484 29.5763 73.3065 33.8926 72.5653C35.6272 72.1705 38.9431 72.4364 38.9431 74.7729C38.4187 83.8131 17.2646 80.7836 23.5172 72.0093C29.665 68.5931 36.0467 65.4669 40.952 60.2539H40.944Z" fill="#A6BBD0"/>
<path d="M35.3044 66.916C36.8454 67.6331 36.3855 69.7924 37.4747 70.9124C37.9265 71.4119 39.3465 72.4996 38.4187 73.0717C28.5274 75.6742 28.3257 67.053 35.3044 66.916Z" fill="#929AB3"/>
<path d="M28.0434 71.6626C32.6341 75.0306 24.6871 82.282 24.1869 74.3537C23.84 72.7343 26.5186 71.1631 28.0434 71.6626Z" fill="#3391CB"/>
<path d="M28.4226 71.1636C32.2871 67.7554 29.8748 78.1814 28.6646 76.6263C28.584 74.894 28.1241 72.8475 28.4226 71.1636Z" fill="#5B89B4"/>
<path d="M54.9177 51.7605C67.7215 46.4589 73.5869 60.1642 57.5721 58.2869C54.4175 56.2081 59.8472 56.0792 61.1704 55.5474C62.7436 54.9351 61.243 54.7095 62.9534 54.073C68.4154 51.5994 56.612 52.2279 54.9177 51.7605Z" fill="#A6BBD0"/>
<path d="M58.1447 54.7103C59.2339 54.5894 61.622 54.0818 62.2271 55.1534C61.3073 57.2725 54.5222 56.4345 58.1447 54.7103Z" fill="#7EA7C4"/>
<path d="M60.2264 49.6812C62.3241 48.1101 71.1343 49.8827 69.5449 52.0662C63.8731 51.7761 58.1368 51.897 52.2876 52.1467C49.6413 51.2604 59.2663 50.7448 60.2264 49.6812Z" fill="#7EA7C4"/>
<path d="M54.1593 54.6702C57.1122 54.0176 56.1925 58.6585 53.9738 59.0211C51.2549 59.8913 49.964 62.5582 48.5441 64.927C47.7776 66.1275 46.3899 68.2224 44.9054 66.9655C41.3717 62.8885 50.9886 57.5708 54.1674 54.6702H54.1593Z" fill="#A6BBD0"/>
<path d="M23.9367 77.1886C19.5154 72.1448 27.6318 70.6623 32.0691 68.2773C31.3269 72.878 32.2386 85.9709 23.9367 77.1886Z" fill="#7EA7C4"/>
<path d="M72.5865 67.8516C72.3526 68.0047 70.3678 67.5696 70.0774 67.3923C70.6744 67.2392 72.0218 67.5696 72.5865 67.8516Z" fill="#D3DCE8"/>
<path d="M66.955 54.7988C67.5439 58.0862 67.2938 61.9133 66.6322 65.1926C66.5435 61.8569 66.3014 58.0459 66.955 54.7988Z" fill="#D3DCE8"/>
<path d="M21.8714 72.2988C22.0004 73.4027 21.8068 75.2075 21.7584 76.4644C21.4518 75.3122 21.3711 73.4913 21.8714 72.2988Z" fill="#D3DCE8"/>
<path d="M28.5678 67.3105C28.5113 67.5039 26.8009 67.7456 26.5508 67.6812C26.575 67.3428 28.245 67.2138 28.5678 67.3105Z" fill="#D3DCE8"/>
<path d="M30.1733 81.0561C27.5512 81.8618 22.9202 79.5333 22.7346 77.7285C24.6871 79.8959 27.3495 80.7983 30.1733 81.0561Z" fill="#D3DCE8"/>
</g>
<defs>
<clipPath id="clip0_63_16707">
<rect width="57" height="62" fill="white" transform="translate(21 19.5)"/>
</clipPath>
</defs>
</svg>
