<svg width="100" height="100" viewBox="0 0 100 100" fill="none" xmlns="http://www.w3.org/2000/svg">
<path fill-rule="evenodd" clip-rule="evenodd" d="M50 100C77.6142 100 100 77.6142 100 50C100 22.3858 77.6142 0 50 0C22.3858 0 0 22.3858 0 50C0 77.6142 22.3858 100 50 100Z" fill="#F8FAFA" fill-opacity="0.08"/>
<path fill-rule="evenodd" clip-rule="evenodd" d="M50 99C77.062 99 99 77.062 99 50C99 22.938 77.062 1 50 1C22.938 1 1 22.938 1 50C1 77.062 22.938 99 50 99ZM50 100C77.6142 100 100 77.6142 100 50C100 22.3858 77.6142 0 50 0C22.3858 0 0 22.3858 0 50C0 77.6142 22.3858 100 50 100Z" fill="#242B2E" fill-opacity="0.16"/>
<path d="M78.2651 29.3703C79.7395 30.3908 80.7359 31.7797 81.0857 33.5516C81.3812 35.7653 80.5174 37.507 79.4834 39.3941C79.364 39.6154 79.2448 39.8368 79.1257 40.0583C78.7852 40.6905 78.4414 41.321 78.0969 41.9511C77.9412 42.2371 77.7854 42.5231 77.6297 42.8092C77.4292 43.1769 77.2284 43.5445 77.0268 43.9117C76.3554 45.1372 75.7041 46.3733 75.0521 47.6094C74.2669 49.0981 73.4758 50.5828 72.666 52.0583C72.0312 53.2176 71.4117 54.3847 70.7931 55.5526C69.9548 57.1352 69.112 58.7152 68.262 60.2915C67.7399 61.26 67.2192 62.2292 66.7003 63.1995C66.5181 63.5403 66.3355 63.8809 66.1527 64.2214C65.741 64.989 65.3304 65.757 64.9264 66.5287C64.7914 66.7862 64.6557 67.0433 64.52 67.3004C64.3524 67.6179 64.186 67.9359 64.021 68.2548C63.0037 70.174 61.8109 71.6143 59.7053 72.3176C57.8862 72.7191 56.2247 72.4117 54.6448 71.4392C53.2035 70.4966 52.5124 68.9479 51.7541 67.4676C51.5812 67.1345 51.4078 66.8017 51.2344 66.469C51.1194 66.2482 51.0046 66.0274 50.8901 65.8065C50.4144 64.8901 49.9234 63.9831 49.4252 63.0788C48.1759 60.7986 47.0819 58.8003 47.5986 56.1126C47.9016 55.0978 48.3774 54.3272 49.099 53.5578C49.2288 53.4189 49.2288 53.4189 49.3612 53.2772C50.5217 52.1546 51.9356 51.7134 53.5268 51.6518C55.3241 51.7229 56.7143 52.4607 58.0883 53.5578C58.1277 53.4549 58.1671 53.352 58.2076 53.246C58.3821 52.8233 58.5793 52.4229 58.7895 52.0168C58.8711 51.8589 58.9528 51.7011 59.0369 51.5384C59.1246 51.3699 59.2123 51.2015 59.3026 51.0279C59.348 50.9405 59.3933 50.8532 59.44 50.7632C60.0985 49.4956 60.7717 48.2367 61.4596 46.9847C62.1049 45.8084 62.7345 44.624 63.3623 43.4382C64.2 41.8567 65.0421 40.2777 65.8918 38.7026C66.3797 37.7979 66.8656 36.8922 67.3492 35.9852C67.758 35.2186 68.1691 34.4533 68.5808 33.6883C68.7888 33.2999 68.9942 32.9104 69.1987 32.5202C70.1669 30.6972 71.2185 29.5388 73.1673 28.7486C74.8366 28.2677 76.7857 28.4895 78.2651 29.3703Z" fill="#4BBDA0"/>
<path d="M44.1932 29.3703C45.4985 30.2755 46.3441 31.5038 47.033 32.9107C47.1828 33.2072 47.3329 33.5036 47.4833 33.7999C47.5586 33.9493 47.634 34.0988 47.7117 34.2528C48.0669 34.9464 48.4422 35.6286 48.8182 36.311C49.4073 37.3869 49.9925 38.4646 50.5671 39.5482C50.634 39.6727 50.701 39.7972 50.7699 39.9254C51.6245 41.5468 51.8353 43.2451 51.4642 45.0466C50.9398 46.6077 49.8256 47.9013 48.3979 48.7139C46.8522 49.4054 45.0175 49.5021 43.4082 48.9514C42.8441 48.7066 42.3439 48.4127 41.8496 48.0446C41.6871 47.9349 41.524 47.8261 41.3603 47.7182C41.2347 47.6344 41.1091 47.5506 40.9797 47.4643C40.9211 47.654 40.9211 47.654 40.8614 47.8476C40.6957 48.3176 40.4992 48.728 40.2621 49.1656C40.1761 49.3251 40.0901 49.4847 40.0015 49.649C39.9077 49.8215 39.8139 49.994 39.7201 50.1664C39.6222 50.3476 39.5244 50.5287 39.4267 50.7099C39.2238 51.0861 39.0205 51.462 38.8171 51.8379C38.3508 52.6997 37.8894 53.5641 37.4274 54.4283C37.2464 54.7664 37.0653 55.1046 36.8843 55.4427C36.5656 56.0379 36.247 56.6332 35.9285 57.2285C34.9218 59.1102 33.9141 60.9913 32.9012 62.8696C32.4533 63.7006 32.0079 64.5328 31.5655 65.3667C31.4214 65.6378 31.2772 65.909 31.133 66.1801C30.999 66.4325 30.8657 66.6852 30.7324 66.938C28.3676 71.3834 28.3676 71.3834 25.9732 72.2462C24.2191 72.7168 22.494 72.5097 20.9093 71.6466C19.5768 70.8264 18.5743 69.6028 18.1377 68.0826C18.0221 67.5487 18.0263 67.0147 18.0169 66.4701C18.0115 66.3559 18.006 66.2416 18.0005 66.1239C17.9763 64.4573 18.918 62.99 19.6752 61.5554C19.7578 61.3978 19.8403 61.2402 19.9254 61.0777C20.514 59.9578 21.1157 58.8455 21.7246 57.7366C22.3789 56.5431 23.0167 55.3411 23.6534 54.1381C24.3468 52.8282 25.0429 51.5203 25.7557 50.2209C26.4619 48.9332 27.1525 47.6376 27.8399 46.3399C28.6784 44.7571 29.5213 43.177 30.3713 41.6004C30.9823 40.467 31.5911 39.3324 32.1987 38.1971C32.3329 37.9467 32.3329 37.9467 32.4698 37.6912C32.8924 36.9021 33.3142 36.1127 33.7333 35.3217C33.927 34.9563 34.1211 34.591 34.3153 34.2259C34.4501 33.972 34.5841 33.7178 34.7182 33.4636C35.9097 31.2242 36.9872 29.4916 39.4941 28.6647C41.1154 28.36 42.7706 28.5249 44.1932 29.3703Z" fill="#00BAD2"/>
<path d="M57.9433 53.8479C58.3416 54.2225 58.6319 54.5685 58.8892 55.0505C58.9554 55.1732 59.0215 55.2959 59.0897 55.4224C59.1951 55.6215 59.1951 55.6215 59.3026 55.8247C59.415 56.034 59.415 56.034 59.5297 56.2476C59.6908 56.5481 59.8516 56.8487 60.012 57.1496C60.2657 57.6248 60.5213 58.0989 60.7774 58.5727C61.2847 59.5114 61.7893 60.4516 62.293 61.3922C62.3676 61.5312 62.4423 61.6702 62.5192 61.8134C62.7224 62.1925 62.9248 62.572 63.1267 62.9518C63.2151 63.1163 63.2151 63.1163 63.3052 63.2841C64.1166 64.8182 64.3799 66.6451 63.8789 68.3471C63.1136 70.1684 61.9932 71.3591 60.1929 72.1363C58.7892 72.6641 57.0641 72.6103 55.6898 72.0207C54.0108 71.1606 52.8925 69.9561 52.1437 68.2111C52.0159 67.625 51.9677 67.0512 51.9534 66.452C51.9453 66.2315 51.9453 66.2315 51.937 66.0065C52.108 64.4774 52.832 63.1544 53.5664 61.8275C53.6622 61.652 53.7578 61.4765 53.8533 61.301C54.052 60.9359 54.2513 60.5711 54.4509 60.2066C54.7525 59.6547 55.049 59.1002 55.3443 58.545C55.4163 58.4097 55.4163 58.4097 55.4897 58.2717C55.7187 57.8413 55.9475 57.4108 56.1762 56.9802C56.7416 55.9211 57.3314 54.8808 57.9433 53.8479Z" fill="#009D6F"/>
<path d="M44.1931 29.3703C45.4991 30.276 46.6142 31.596 47.0125 33.1572C47.0792 33.6039 47.1047 34.0368 47.1145 34.4885C47.1226 34.7311 47.1226 34.7311 47.1309 34.9787C47.056 36.3717 46.3413 37.6835 45.6917 38.8863C45.6159 39.0293 45.54 39.1722 45.4618 39.3195C45.226 39.7624 44.988 40.2041 44.7493 40.6454C44.6759 40.7815 44.6024 40.9175 44.5267 41.0576C44.0988 41.8488 43.6674 42.6381 43.2346 43.4266C42.8319 44.1611 42.4315 44.897 42.0307 45.6326C41.8835 45.9028 41.7362 46.1729 41.589 46.4431C41.5272 46.5565 41.4653 46.6699 41.4017 46.7867C41.3363 46.9067 41.3363 46.9067 41.2696 47.0291C40.6681 46.7618 40.4555 46.4178 40.1549 45.8503C40.1016 45.7526 40.0482 45.655 39.9932 45.5544C39.788 45.1766 39.5862 44.7972 39.3847 44.4176C39.2921 44.2435 39.1995 44.0694 39.1069 43.8953C38.6825 43.0971 38.2584 42.2987 37.8366 41.4991C37.3212 40.5228 36.8003 39.5518 36.2526 38.5931C35.2038 36.7549 34.7493 35.132 35.0979 33.0082C35.5505 31.4439 36.5855 30.2016 37.9348 29.329C39.8865 28.2792 42.269 28.2269 44.1931 29.3703Z" fill="#2485A4"/>
</svg>
