<svg width="100" height="100" viewBox="0 0 100 100" fill="none" xmlns="http://www.w3.org/2000/svg">
<path fill-rule="evenodd" clip-rule="evenodd" d="M50 100C77.6142 100 100 77.6142 100 50C100 22.3858 77.6142 0 50 0C22.3858 0 0 22.3858 0 50C0 77.6142 22.3858 100 50 100Z" fill="#F8FAFA" fill-opacity="0.08"/>
<path fill-rule="evenodd" clip-rule="evenodd" d="M50 99C77.062 99 99 77.062 99 50C99 22.938 77.062 1 50 1C22.938 1 1 22.938 1 50C1 77.062 22.938 99 50 99ZM50 100C77.6142 100 100 77.6142 100 50C100 22.3858 77.6142 0 50 0C22.3858 0 0 22.3858 0 50C0 77.6142 22.3858 100 50 100Z" fill="#242B2E" fill-opacity="0.16"/>
<mask id="mask0_353_6706" style="mask-type:luminance" maskUnits="userSpaceOnUse" x="12" y="12" width="75" height="76">
<path d="M87 12.5H12V87.5H87V12.5Z" fill="white"/>
</mask>
<g mask="url(#mask0_353_6706)">
<path fill-rule="evenodd" clip-rule="evenodd" d="M63.0976 20.3078L49.4562 28.1113L35.8107 35.9191V20.3078L49.4562 12.5L63.0976 20.3078ZM82.1989 31.2327L82.2076 46.8005L54.9556 31.211L68.5576 23.4292L82.1989 31.2327ZM68.5576 60.9209L68.5531 76.5235L82.2207 68.7155L82.2118 53.048L68.5576 45.2359V60.9209ZM35.8018 79.6355L49.4562 87.4348L63.0976 79.6442V64.0416L35.8018 79.6355ZM35.8107 42.162V57.7775L49.4562 65.581L63.0976 57.7948V42.162L49.4562 34.3585L35.8107 42.162ZM16.6875 68.7151L16.6962 53.0865L44.0049 68.7064L30.3419 76.5144L16.6875 68.7151ZM30.3506 23.4292L16.7093 31.237L16.7006 46.8439L30.3506 54.6561V23.4292Z" fill="#6641F3"/>
</g>
</svg>
