<svg width="100" height="100" viewBox="0 0 100 100" fill="none" xmlns="http://www.w3.org/2000/svg">
<path fill-rule="evenodd" clip-rule="evenodd" d="M50 100C77.6142 100 100 77.6142 100 50C100 22.3858 77.6142 0 50 0C22.3858 0 0 22.3858 0 50C0 77.6142 22.3858 100 50 100Z" fill="#0580C2"/>
<path d="M56.4479 19.5336V37.8883C53.143 35.1519 50.0769 33.9837 45.8863 33.9837C35.3247 33.9837 28 42.394 28 54.5751C28 66.8227 35.4955 75.5 46.1252 75.5C50.1112 75.5 53.6207 74.1651 56.4142 71.4952V74.5658H65V19.5L56.4479 19.5336ZM55.4937 62.1508C54.3012 65.2214 50.826 67.3903 46.9765 67.3903C40.9123 67.3903 37.028 62.4844 37.028 54.8756C37.028 46.9663 40.946 42.0268 47.2491 42.0268C51.0648 42.0268 54.7446 44.3631 55.664 47.4331C56.1748 48.9348 56.3457 51.0041 56.3457 55.2758C56.3457 58.6464 56.1074 60.7493 55.4937 62.1508Z" fill="white"/>
</svg>
