<svg width="100" height="100" viewBox="0 0 100 100" fill="none" xmlns="http://www.w3.org/2000/svg">
<path fill-rule="evenodd" clip-rule="evenodd" d="M50 100C77.6142 100 100 77.6142 100 50C100 22.3858 77.6142 0 50 0C22.3858 0 0 22.3858 0 50C0 77.6142 22.3858 100 50 100Z" fill="#F36C21"/>
<g clip-path="url(#clip0_28578_72299)">
<path fill-rule="evenodd" clip-rule="evenodd" d="M52.5621 32.8674H38.8852L27.1801 32.837V23H52.7812C61.3358 23.0609 67.7308 25.1826 71.9664 29.3651C75.3778 32.7761 77.8191 37.8621 78.8206 44.4404C76.661 41.3035 71.6223 34.8166 56.6932 33.1415C55.4729 33.0197 53.1567 32.8674 52.5621 32.8674ZM73.5217 45.1093C73.3126 44.8625 73.1036 44.6362 72.8946 44.4306L72.7379 44.2455C72.1734 43.6902 71.5778 43.1555 70.9505 42.6413C70.3235 42.1477 69.6651 41.685 68.9753 41.2531C68.3063 40.8212 67.6062 40.4407 66.8744 40.1117C66.1638 39.762 65.4217 39.4535 64.6485 39.1862C64.711 39.3302 64.7738 39.4638 64.8366 39.5872C64.8783 39.7312 64.9306 39.8649 64.9934 39.9883L65.1188 40.4202C65.1813 40.5641 65.2338 40.6978 65.2755 40.8212C65.4217 41.4999 65.5473 42.1683 65.6518 42.8264C65.7772 43.5051 65.8817 44.1838 65.9653 44.8625C66.049 45.5206 66.1221 46.189 66.1849 46.8677C66.2474 47.5464 66.2894 48.2251 66.3102 48.9037C66.3311 49.5208 66.3519 50.1276 66.3728 50.724V52.5749C66.3728 53.1713 66.3519 53.778 66.3102 54.3949C66.2894 54.9913 66.258 55.5981 66.216 56.215C66.1743 56.688 66.1221 57.161 66.0593 57.634C65.9967 58.1071 65.9234 58.5801 65.84 59.0531L65.589 60.4722C65.4845 60.9247 65.3695 61.3874 65.2441 61.8604C65.1396 62.313 65.0037 62.7655 64.8366 63.2178C64.6693 63.6704 64.4706 64.1125 64.2408 64.5444C64.0318 64.9557 63.7914 65.367 63.5196 65.7784C63.2689 66.1692 62.9865 66.5497 62.673 66.9199C62.4014 67.2488 62.1088 67.5575 61.7953 67.8454C61.4607 68.1331 61.1158 68.3903 60.7606 68.6165C60.3842 68.8428 59.9976 69.0382 59.6005 69.2026C59.2033 69.3672 58.7956 69.5009 58.3776 69.6038C57.8968 69.686 57.416 69.758 56.9352 69.8197C56.4754 69.8814 56.0052 69.9327 55.5244 69.9739L54.0819 70.0356H52.6398H38.9693V37.1193H27.1801V73.7376C27.1801 77.1927 29.7511 80 32.9179 80H53.1728L57.1233 79.9383C59.9765 79.9383 62.7986 79.3831 65.4009 78.3033C68.0348 77.2235 70.4175 75.6811 72.4555 73.7068C74.4622 71.7323 76.0614 69.3879 77.1586 66.7965C78.2562 64.2359 78.8206 61.4595 78.8206 58.683C78.8206 57.6548 78.7473 56.6367 78.6011 55.6289C78.4546 54.6417 78.2248 53.6546 77.9113 52.6674C77.5977 51.7009 77.2214 50.7649 76.7826 49.8601C76.3226 48.9552 75.7896 48.081 75.1834 47.2379C75.0163 46.9911 74.8385 46.7443 74.6503 46.4975C74.4833 46.2713 74.3054 46.0348 74.1173 45.788C73.9083 45.5617 73.7098 45.3355 73.5217 45.1093Z" fill="#030D11"/>
</g>
<defs>
<clipPath id="clip0_28578_72299">
<rect width="52" height="57" fill="white" transform="translate(27 23)"/>
</clipPath>
</defs>
</svg>
