<svg width="100" height="100" viewBox="0 0 100 100" fill="none" xmlns="http://www.w3.org/2000/svg">
<path fill-rule="evenodd" clip-rule="evenodd" d="M50 100C77.6142 100 100 77.6142 100 50C100 22.3858 77.6142 0 50 0C22.3858 0 0 22.3858 0 50C0 77.6142 22.3858 100 50 100Z" fill="#F8FAFA" fill-opacity="0.08"/>
<path fill-rule="evenodd" clip-rule="evenodd" d="M50 99C77.062 99 99 77.062 99 50C99 22.938 77.062 1 50 1C22.938 1 1 22.938 1 50C1 77.062 22.938 99 50 99ZM50 100C77.6142 100 100 77.6142 100 50C100 22.3858 77.6142 0 50 0C22.3858 0 0 22.3858 0 50C0 77.6142 22.3858 100 50 100Z" fill="#242B2E" fill-opacity="0.16"/>
<path d="M52.1392 67.0896V51.8312L65.3238 44.2129L78.5303 51.8312V67.0896L65.3238 74.7297L52.1392 67.0896Z" fill="#B10A05"/>
<path d="M36.7495 25.2002L49.9342 17.5601L63.1188 25.2002V40.4586L49.9342 48.0769L36.7495 40.4586V25.2002Z" fill="#B10A05"/>
<path d="M49.9345 13.5C29.5463 13.5 13 30.1118 13 50.5218C13 70.9319 29.5463 87.5 49.9345 87.5C70.3227 87.5 86.869 70.9319 86.869 50.5218C86.869 30.1118 70.3227 13.5 49.9345 13.5ZM49.9345 15.7265C69.144 15.7265 84.6861 31.3124 84.6861 50.5218C84.6861 69.7313 69.144 85.2734 49.9345 85.2734C30.7251 85.2734 15.1829 69.7531 15.1829 50.5218C15.1829 31.2906 30.7251 15.7265 49.9345 15.7265Z" fill="#B10A05"/>
<path d="M21.3389 51.8312L34.5454 44.2129L47.73 51.8312V67.0896L34.5454 74.7297L21.3389 67.0896V51.8312Z" fill="#B10A05"/>
</svg>
