<svg width="100" height="100" viewBox="0 0 100 100" fill="none" xmlns="http://www.w3.org/2000/svg">
<path fill-rule="evenodd" clip-rule="evenodd" d="M50 100C77.6142 100 100 77.6142 100 50C100 22.3858 77.6142 0 50 0C22.3858 0 0 22.3858 0 50C0 77.6142 22.3858 100 50 100Z" fill="white"/>
<path fill-rule="evenodd" clip-rule="evenodd" d="M50 99C77.062 99 99 77.062 99 50C99 22.938 77.062 1 50 1C22.938 1 1 22.938 1 50C1 77.062 22.938 99 50 99ZM50 100C77.6142 100 100 77.6142 100 50C100 22.3858 77.6142 0 50 0C22.3858 0 0 22.3858 0 50C0 77.6142 22.3858 100 50 100Z" fill="#242B2E" fill-opacity="0.16"/>
<path d="M69.5026 45.9775C69.5026 40.8451 68.5708 35.9178 66.723 31.3223C66.3599 31.4802 66.0598 31.6223 65.8704 31.7171C65.0334 32.1435 64.5595 33.0594 64.6701 33.9912C64.8913 35.9021 65.0334 38.1288 65.0334 40.1345C65.0334 49.5151 62.0011 58.5166 56.5054 65.4812C51.3098 72.0664 44.3296 76.2831 36.7334 77.499C36.7492 77.499 36.7808 77.5306 36.7966 77.5306C41.2344 80.0574 46.6669 80.2154 51.2466 77.9729C61.9695 72.6981 69.5184 60.3328 69.5184 45.9617H69.5026V45.9775Z" fill="#D3121D"/>
<path d="M71.6029 30.376C70.8923 30.3602 70.2291 30.4076 69.6132 30.5024C71.524 35.3664 72.5031 40.578 72.5031 45.9789C72.5031 62.087 63.5174 76.4106 50.4097 81.6222C51.0729 81.6696 51.7362 81.6854 52.4154 81.6854H52.51C58.8269 81.6854 64.8281 78.7795 68.792 73.868C73.8138 67.6459 76.8935 59.2918 76.8935 50.1007C76.8935 42.9942 75.0773 36.1876 71.6187 30.376H71.6029Z" fill="#D3121D"/>
<path d="M83.9842 50.1019C83.9842 45.8063 83.1315 41.716 81.5837 37.9891C80.8731 36.2677 79.8783 34.6885 78.5516 33.3777C77.8094 32.6513 77.0198 32.0354 76.167 31.5932C75.946 31.4826 75.7249 31.3721 75.5037 31.2773C78.3623 36.9784 79.8783 43.4532 79.8783 50.1019C79.8783 59.4351 76.846 68.421 71.4451 75.3064C79.0729 69.5421 84 60.3985 84 50.1019H83.9842Z" fill="#D3121D"/>
<path d="M75.0622 28.086C69.3138 22.1796 61.2912 18.5 52.4001 18.5C34.9339 18.5 20.626 32.9658 20.8155 50.4164C20.8629 54.6802 21.7473 58.7547 23.3265 62.45C22.8053 62.3868 22.2842 62.3552 21.7631 62.3868C20.3417 62.45 18.3519 61.9447 17.436 61.692C16.5516 61.4394 15.7146 62.1659 16.0936 63.0187V63.0503C19.2363 70.2356 26.1849 74.9103 32.8177 74.8945C33.2599 74.8945 33.7021 74.8629 34.1443 74.8313C49.6839 73.6468 62.0177 58.5493 62.0177 40.1672C62.0177 39.0142 61.9703 37.8614 61.8755 36.7086C61.8283 36.0769 61.0229 35.8558 60.6438 36.3611C56.3482 42.0463 49.9841 52.0588 42.0089 46.8472C38.9608 44.8417 37.3028 40.5461 38.2344 36.1558C39.8926 28.2912 49.0681 23.1271 53.0951 24.738C53.4109 24.8643 54.548 25.3223 54.9269 26.3488C55.5114 27.928 53.7426 29.2388 52.8266 32.034C51.8474 35.0662 52.4001 38.2878 53.0951 38.4142C53.8532 38.5721 55.1481 35.761 58.3223 33.1869C60.628 31.3392 62.3652 30.8022 63.4547 28.844C64.5129 26.9489 62.6337 24.8959 63.2654 24.7222C63.9128 24.5327 64.4971 26.7594 66.3922 27.8491C67.9715 28.765 69.3927 28.1965 71.4773 28.1175C71.4773 28.1175 72.3617 28.086 73.7987 28.2912C73.7987 28.2912 74.2094 28.3544 74.8569 28.4808C75.078 28.5281 75.236 28.2439 75.078 28.086H75.0622ZM51.5159 52.4377C51.7526 52.1692 52.1949 51.6481 52.953 51.5691C53.0951 51.5691 53.8532 51.4901 54.3584 51.964C55.1007 52.6747 54.8953 54.0485 54.2321 54.8382C53.6162 55.5646 52.4159 56.0541 51.5633 55.5014C50.8525 55.0435 50.8209 54.0643 50.8209 53.9854C50.8209 53.2273 51.2632 52.7063 51.5001 52.4377H51.5159Z" fill="#290042"/>
</svg>
