<svg width="100" height="101" viewBox="0 0 100 101" fill="none" xmlns="http://www.w3.org/2000/svg">
<path fill-rule="evenodd" clip-rule="evenodd" d="M50 99.5C77.062 99.5 99 77.562 99 50.5C99 23.438 77.062 1.5 50 1.5C22.938 1.5 1 23.438 1 50.5C1 77.562 22.938 99.5 50 99.5Z" fill="white"/>
<path fill-rule="evenodd" clip-rule="evenodd" d="M0 50.5C0 78.0862 22.4138 100.5 50 100.5C77.5862 100.5 100 78.0862 100 50.5C100 22.9138 77.4294 0.5 50 0.5C22.5705 0.5 0 22.9138 0 50.5ZM7.83696 50.5C7.83696 27.3026 26.8024 8.33693 50 8.33693C73.3543 8.33693 92.1629 27.3026 92.1629 50.5C92.1629 73.6974 73.1975 92.6631 50 92.6631C26.8024 92.6631 7.83696 73.6974 7.83696 50.5ZM76.9592 70.4854H65.2831V40.9932C65.2831 39.5839 64.6793 38.9801 63.27 38.9801H56.0227V70.4854H44.4473V38.9801H35.1871V70.4854H23.511V28.7132H63.9746C72.631 28.7132 76.9592 33.0413 76.9592 41.6977V70.4854Z" fill="#000129"/>
</svg>
