<svg width="100" height="100" viewBox="0 0 100 100" fill="none" xmlns="http://www.w3.org/2000/svg">
<path fill-rule="evenodd" clip-rule="evenodd" d="M50 100C77.6142 100 100 77.6142 100 50C100 22.3858 77.6142 0 50 0C22.3858 0 0 22.3858 0 50C0 77.6142 22.3858 100 50 100Z" fill="white"/>
<path fill-rule="evenodd" clip-rule="evenodd" d="M50 100C77.6142 100 100 77.6142 100 50C100 22.3858 77.6142 0 50 0C22.3858 0 0 22.3858 0 50C0 77.6142 22.3858 100 50 100Z" fill="url(#paint0_linear_101_27095)"/>
<path d="M35.6521 28.1071V34.9107C38.8106 31.7321 41.664 29.5357 44.2124 28.3214C46.7607 27.1071 49.6321 26.5 52.8265 26.5C56.2722 26.5 59.4128 27.2321 62.2483 28.6964C64.2582 29.7679 66.0708 31.5536 67.686 34.0536C69.337 36.5179 70.1625 39.0536 70.1625 41.6607V70H73.9851C75.0618 70 75.8335 70.2143 76.3001 70.6429C76.7667 71.0357 77 71.5714 77 72.25C77 72.8929 76.7667 73.4286 76.3001 73.8571C75.8335 74.2857 75.0618 74.5 73.9851 74.5H61.8714C60.7587 74.5 59.9691 74.2857 59.5025 73.8571C59.0359 73.4286 58.8026 72.8929 58.8026 72.25C58.8026 71.5714 59.0359 71.0357 59.5025 70.6429C59.9691 70.2143 60.7587 70 61.8714 70H65.6401V42.4107C65.6401 39.2321 64.4736 36.5536 62.1406 34.375C59.8076 32.1607 56.6849 31.0536 52.7727 31.0536C49.7936 31.0536 47.2094 31.6607 45.02 32.875C42.8305 34.0536 39.7079 37.0179 35.6521 41.7679V70H40.7667C41.8435 70 42.6152 70.2143 43.0817 70.6429C43.5483 71.0357 43.7817 71.5714 43.7817 72.25C43.7817 72.8929 43.5483 73.4286 43.0817 73.8571C42.6152 74.2857 41.8435 74.5 40.7667 74.5H26.015C24.9382 74.5 24.1665 74.2857 23.6999 73.8571C23.2333 73.4286 23 72.8929 23 72.25C23 71.5714 23.2333 71.0357 23.6999 70.6429C24.1665 70.2143 24.9382 70 26.015 70H31.1296V32.6607H27.3071C26.2303 32.6607 25.4586 32.4464 24.992 32.0179C24.5254 31.5893 24.2921 31.0357 24.2921 30.3571C24.2921 29.7143 24.5254 29.1786 24.992 28.75C25.4586 28.3214 26.2303 28.1071 27.3071 28.1071H35.6521Z" fill="white"/>
<defs>
<linearGradient id="paint0_linear_101_27095" x1="49.6894" y1="98.913" x2="49.6894" y2="0.362313" gradientUnits="userSpaceOnUse">
<stop stop-color="#0097FF"/>
<stop offset="1" stop-color="#0A31E0"/>
</linearGradient>
</defs>
</svg>
