<svg width="100" height="100" viewBox="0 0 100 100" fill="none" xmlns="http://www.w3.org/2000/svg">
<path d="M56.4339 24.7857V39.3651L69.0693 32.0765L76 35.501L75.5026 43.2114L62.8662 50.5L75.5026 57.7907L76 65.501L69.0693 68.9256L56.4339 61.636V76.2143L50.0005 80.5L43.5671 76.2143V61.6349L30.9308 68.9256L24 65.501L24.4974 57.7907L37.1327 50.5L24.4974 43.2114L24 35.501L30.9308 32.0765L43.5671 39.3661V24.7857L50.0005 20.5L56.4339 24.7857Z" fill="#00B2D5"/>
<path fill-rule="evenodd" clip-rule="evenodd" d="M50 100C77.6142 100 100 77.6142 100 50C100 22.3858 77.6142 0 50 0C22.3858 0 0 22.3858 0 50C0 77.6142 22.3858 100 50 100Z" fill="#F8FAFA" fill-opacity="0.08"/>
<path fill-rule="evenodd" clip-rule="evenodd" d="M50 99C77.062 99 99 77.062 99 50C99 22.938 77.062 1 50 1C22.938 1 1 22.938 1 50C1 77.062 22.938 99 50 99ZM50 100C77.6142 100 100 77.6142 100 50C100 22.3858 77.6142 0 50 0C22.3858 0 0 22.3858 0 50C0 77.6142 22.3858 100 50 100Z" fill="#242B2E" fill-opacity="0.16"/>
</svg>
