<svg width="100" height="100" viewBox="0 0 100 100" fill="none" xmlns="http://www.w3.org/2000/svg">
<g clip-path="url(#clip0_63_6214)">
<path d="M50 100C77.6142 100 100 77.6142 100 50C100 22.3858 77.6142 0 50 0C22.3858 0 0 22.3858 0 50C0 77.6142 22.3858 100 50 100Z" fill="#000099"/>
<path d="M34.4629 35.293C33.2227 35.0293 32.334 34.7949 31.8359 34.6777C31.2207 34.502 30.7422 34.2676 30.5078 33.9355V32.5781C30.918 31.9336 31.9238 31.5137 33.3105 31.5137C35.2246 31.5137 36.5527 31.9531 38.6523 33.6133L41.1035 30.6641C38.623 28.5938 36.5039 27.8613 33.4277 27.8613C29.8828 27.8613 27.4414 29.3066 26.4648 31.377V35.8594C27.2363 37.3633 29.0039 38.2227 32.5391 38.9844C33.8086 39.2773 34.668 39.4824 35.166 39.5703C35.8105 39.7754 36.4063 40.0391 36.7285 40.5176V42.0801C36.2891 42.793 35.2246 43.1738 33.8379 43.1738C32.832 43.2031 31.8652 42.998 30.9473 42.6172C30.0586 42.2656 29.0332 41.582 27.7344 40.5176L25.1074 43.4375C27.9395 45.9473 30.332 46.7969 33.7207 46.7969C37.3535 46.7969 39.9219 45.4102 40.8887 43.1934V38.6816C40.0684 37.002 38.0859 36.123 34.4629 35.293ZM73.6719 28.4473V46.2695H69.5117V44.3848C68.5645 45.918 66.8262 46.8066 64.2871 46.8066C60.0684 46.8066 57.9687 44.6191 57.9687 41.1426V28.4473H62.5098V39.9219C62.5098 41.7773 63.5156 42.8711 65.459 42.8711C67.7344 42.8711 69.1211 41.5723 69.1211 39.1797V28.4375H73.6719V28.4473ZM51.9336 59.2676V71.7188H47.3926V60.625C47.3926 58.4961 46.5332 57.1973 44.5605 57.1973C42.5879 57.1973 41.4355 58.6719 41.4355 60.7422V71.7188H36.8945V60.625C36.8945 58.3496 35.9473 57.1973 34.0625 57.1973C32.0605 57.1973 30.9375 58.6719 30.9375 60.7422V71.7188H26.3965V53.8965H30.6152V55.8691C31.6504 54.1602 33.3594 53.3008 35.6934 53.3008C37.9687 53.3008 39.6777 54.248 40.6543 55.9277C41.8652 54.1895 43.6621 53.3008 45.9961 53.3008C49.7852 53.3105 51.9336 55.5859 51.9336 59.2676ZM65.5859 53.1348C61.4844 53.1348 58.2715 55.3516 56.9434 58.8867V66.3867C58.2422 69.9316 61.4844 72.1387 65.5859 72.1387C69.6875 72.1387 72.8711 69.9219 74.1699 66.416V58.8574C72.8516 55.3516 69.6289 53.1348 65.5859 53.1348ZM69.7852 65.2637C69.0723 67.1484 67.5684 68.2715 65.5664 68.2715C63.5938 68.2715 62.0215 67.1484 61.3184 65.2637V60.0098C62.0313 58.125 63.5352 56.9727 65.5664 56.9727C67.5684 56.9727 69.0527 58.125 69.7559 60.0098L69.7852 65.2637Z" fill="white"/>
</g>
<defs>
<clipPath id="clip0_63_6214">
<rect width="100" height="100" fill="white"/>
</clipPath>
</defs>
</svg>
