<svg width="101" height="101" viewBox="0 0 101 101" fill="none" xmlns="http://www.w3.org/2000/svg">
<path fill-rule="evenodd" clip-rule="evenodd" d="M50.1599 100.367C77.7741 100.367 100.16 77.9814 100.16 50.3672C100.16 22.753 77.7741 0.367188 50.1599 0.367188C22.5457 0.367188 0.159912 22.753 0.159912 50.3672C0.159912 77.9814 22.5457 100.367 50.1599 100.367Z" fill="#F8FAFA" fill-opacity="0.08"/>
<path fill-rule="evenodd" clip-rule="evenodd" d="M50.1599 99.3672C77.2219 99.3672 99.1599 77.4291 99.1599 50.3672C99.1599 23.3052 77.2219 1.36719 50.1599 1.36719C23.098 1.36719 1.15991 23.3052 1.15991 50.3672C1.15991 77.4291 23.098 99.3672 50.1599 99.3672ZM50.1599 100.367C77.7741 100.367 100.16 77.9814 100.16 50.3672C100.16 22.753 77.7741 0.367188 50.1599 0.367188C22.5457 0.367188 0.159912 22.753 0.159912 50.3672C0.159912 77.9814 22.5457 100.367 50.1599 100.367Z" fill="#242B2E" fill-opacity="0.16"/>
<path d="M17 54.9906L17.0048 54.9619C17.0615 54.6017 17.0812 53.9036 17.1208 53.494C17.2084 52.5659 17.3519 51.6439 17.5507 50.7324C18.8614 44.6773 22.3672 39.2948 27.4172 35.5847C33.0069 31.4839 40.0409 29.7579 46.9398 30.7942C50.7773 31.3694 54.4341 32.7828 57.6405 34.9303C57.4991 35.0762 57.356 35.2216 57.2188 35.3714C53.7529 39.161 54.029 44.7183 57.6431 48.2822C56.2304 50.038 54.794 51.9732 53.4132 53.7677L51.1626 56.6933C50.7887 57.1791 50.3504 57.7221 49.995 58.2138C48.4924 57.4564 46.7447 57.3147 45.1358 57.8207C44.4108 58.0472 43.5242 58.4821 42.9638 58.997L38.8575 55.9573C38.2881 55.5368 37.2405 54.8132 36.7259 54.371L38.628 51.8995C36.3035 50.149 33.9088 48.4492 31.5963 46.6915C29.8423 48.988 28.0678 51.3335 26.284 53.6047C26.7793 53.9387 27.2843 54.3248 27.7618 54.6853C29.5998 56.0727 31.502 57.4063 33.3277 58.8072C33.9336 57.9825 34.6163 57.1173 35.2489 56.3072C37.2838 57.7729 39.4143 59.353 41.4184 60.8624C40.6179 62.529 40.4121 64.1353 41.0539 65.9098C41.6337 67.4881 42.8247 68.7782 44.3682 69.4996C45.9021 70.2024 47.6576 70.2783 49.2486 69.7108C50.8375 69.1461 52.1338 67.9873 52.8543 66.4876C53.5799 64.9667 53.6596 63.2255 53.0757 61.6469C52.8126 60.9319 52.416 60.2715 51.9065 59.6992L59.5822 49.7393C62.14 51.0197 64.3916 51.3126 67.2124 50.4891C67.4897 50.408 68.0269 50.2017 68.2798 50.0722C69.8674 56.5388 68.8072 63.3588 65.3266 69.0666C61.769 74.8979 55.9934 79.1006 49.2738 80.748C48.2032 81.0087 46.8112 81.262 45.7116 81.365C45.3096 81.4014 44.9068 81.4301 44.5036 81.4512C44.3406 81.4595 43.9309 81.4678 43.788 81.5H41.9404C41.7915 81.4633 40.9996 81.4253 40.7803 81.4065C40.0215 81.3481 39.266 81.2537 38.5166 81.1239C34.2162 80.3898 30.1747 78.6006 26.768 75.923C21.89 72.0981 18.5796 66.6771 17.4428 60.6528C17.2609 59.6724 17.134 58.6834 17.0628 57.6896C17.0332 57.2465 17.0542 56.6815 17.0044 56.2578L17 56.2233V54.9906Z" fill="#E7005E"/>
<path d="M72.9062 19.5H74.0326C74.2702 19.5579 74.8066 19.5716 75.1055 19.6251C76.3918 19.8585 77.6181 20.3468 78.7131 21.0614C80.8401 22.4507 82.3179 24.6388 82.8134 27.1317C83.3115 29.6028 82.803 32.1706 81.4009 34.2649C79.9867 36.393 77.7742 37.8598 75.2644 38.3328C72.7876 38.8044 70.2251 38.269 68.1439 36.8451C66.0582 35.4202 64.6266 33.2217 64.166 30.7368C63.6956 28.2626 64.2342 25.7029 65.662 23.6287C66.9861 21.6878 68.9858 20.3106 71.27 19.7662C71.9435 19.6007 72.2956 19.6198 72.8799 19.5054L72.9062 19.5Z" fill="#FEFEFF"/>
</svg>
