<svg width="100" height="100" viewBox="0 0 100 100" fill="none" xmlns="http://www.w3.org/2000/svg">
<path fill-rule="evenodd" clip-rule="evenodd" d="M50 100C77.6142 100 100 77.6142 100 50C100 22.3858 77.6142 0 50 0C22.3858 0 0 22.3858 0 50C0 77.6142 22.3858 100 50 100Z" fill="#0052CC"/>
<path d="M71.9284 46.0747H57.4717L55.0878 59.8502H45.0911L33.2488 73.4758C33.2488 73.4758 33.7871 73.9999 34.6329 73.9999H65.9305C66.6993 73.9999 67.3145 73.4758 67.4683 72.7271L71.9284 46.0747Z" fill="url(#paint0_linear_27492_88363)"/>
<path d="M27.5577 32C26.6349 32 25.8659 32.8235 26.0197 33.7219L32.556 72.278C32.6329 72.7273 32.8636 73.1765 33.2481 73.4759C33.2481 73.4759 33.7864 74 34.6323 74L46.7821 59.8503H45.0904L42.399 46.0748H57.5478H72.0047L74.0808 33.7219C74.2346 32.8235 73.5427 32 72.543 32H27.5577Z" fill="white"/>
<defs>
<linearGradient id="paint0_linear_27492_88363" x1="73.822" y1="52.2038" x2="51.6308" y2="67.6324" gradientUnits="userSpaceOnUse">
<stop offset="0.0718327" stop-color="white" stop-opacity="0.4"/>
<stop offset="1" stop-color="white"/>
</linearGradient>
</defs>
</svg>
