<svg width="100" height="100" viewBox="0 0 100 100" fill="none" xmlns="http://www.w3.org/2000/svg">
<path fill-rule="evenodd" clip-rule="evenodd" d="M50 100C77.6142 100 100 77.6142 100 50C100 22.3858 77.6142 0 50 0C22.3858 0 0 22.3858 0 50C0 77.6142 22.3858 100 50 100Z" fill="#F8FAFA"/>
<path fill-rule="evenodd" clip-rule="evenodd" d="M50 99C77.062 99 99 77.062 99 50C99 22.938 77.062 1 50 1C22.938 1 1 22.938 1 50C1 77.062 22.938 99 50 99ZM50 100C77.6142 100 100 77.6142 100 50C100 22.3858 77.6142 0 50 0C22.3858 0 0 22.3858 0 50C0 77.6142 22.3858 100 50 100Z" fill="#242B2E" fill-opacity="0.16"/>
<path d="M63.2668 59.0352C63.1021 59.0352 62.1137 58.3833 60.6311 58.3833C58.6543 58.3833 57.1717 59.8502 57.1717 61.6432C57.1717 63.4361 58.4896 64.9031 60.6311 64.9031C62.1137 64.9031 63.1021 64.2511 63.2668 64.2511V67.511C62.9374 67.674 61.7842 68 60.4664 68C57.007 68 53.877 65.5551 53.877 61.6432C53.877 58.0573 56.6775 55.2863 60.4664 55.2863C61.949 55.2863 62.9374 55.6123 63.2668 55.7753V59.0352ZM30.8144 59.0352C30.6497 59.0352 29.6613 58.3833 28.1787 58.3833C26.2019 58.3833 24.7193 59.8502 24.7193 61.6432C24.7193 63.4361 26.0371 64.9031 28.1787 64.9031C29.6613 64.9031 30.6497 64.2511 30.8144 64.2511V67.511C30.4849 67.674 29.3318 68 28.0139 68C24.5545 68 21.4246 65.5551 21.4246 61.6432C21.4246 58.0573 24.2251 55.2863 28.0139 55.2863C29.4965 55.2863 30.4849 55.6123 30.8144 55.7753V59.0352ZM79.7401 61.6432C79.7401 65.0661 76.9397 68 73.1508 68C69.362 68 66.5615 65.2291 66.5615 61.6432C66.5615 58.2203 69.362 55.2863 73.1508 55.2863C76.9397 55.4493 79.7401 58.2203 79.7401 61.6432ZM73.1508 58.5463C71.3387 58.5463 69.8562 60.0132 69.8562 61.8062C69.8562 63.5991 71.174 65.0661 73.1508 65.0661C74.9629 65.0661 76.4455 63.5991 76.4455 61.8062C76.4455 60.0132 74.9629 58.5463 73.1508 58.5463ZM50.0882 58.3833C50.0882 58.3833 48.7703 58.0573 47.6172 58.0573C46.2993 58.0573 45.6404 58.5463 45.6404 59.0352C45.6404 59.8502 46.6288 60.0132 47.123 60.1762L47.9466 60.5022C49.9234 61.1542 50.9118 62.4581 50.9118 63.9251C50.9118 67.022 48.1114 68 45.8051 68C44.1578 68 42.6752 67.674 42.5104 67.674V64.9031C42.8399 64.9031 44.1578 65.3921 45.4756 65.3921C46.9582 65.3921 47.7819 64.9031 47.7819 64.2511C47.7819 63.5991 47.123 63.2731 46.464 63.1101C46.2993 63.1101 45.9698 62.9471 45.8051 62.9471C43.993 62.4581 42.6752 61.3172 42.6752 59.3612C42.6752 57.0793 44.3225 55.6123 47.2877 55.6123C48.7703 55.6123 50.2529 55.9383 50.2529 55.9383L50.0882 58.3833ZM18.1299 42.4097C18.1299 41.5947 17.3063 40.9427 16.4826 40.9427C15.6589 40.9427 15 41.5947 15 42.4097V45.6696C15 46.4846 15.6589 47.1366 16.4826 47.1366C17.3063 47.1366 17.9652 46.4846 17.9652 45.6696L18.1299 42.4097ZM26.5313 38.1718C26.5313 37.3568 25.8724 36.7048 25.0487 36.7048C24.2251 36.7048 23.5661 37.3568 23.5661 38.1718V45.6696C23.5661 46.4846 24.2251 47.1366 25.0487 47.1366C25.8724 47.1366 26.5313 46.4846 26.5313 45.6696V38.1718ZM35.0974 32.467C35.0974 31.652 34.4385 31 33.6148 31C32.7912 31 32.1322 31.652 32.1322 32.467V48.7665C32.1322 49.5815 32.7912 50.2335 33.6148 50.2335C34.4385 50.2335 35.0974 49.5815 35.0974 48.7665V32.467ZM43.4988 38.1718C43.4988 37.3568 42.8399 36.7048 42.0162 36.7048C41.1926 36.7048 40.5336 37.3568 40.5336 38.1718V45.6696C40.5336 46.4846 41.1926 47.1366 42.0162 47.1366C42.8399 47.1366 43.4988 46.4846 43.4988 45.6696V38.1718ZM52.065 42.4097C52.065 41.5947 51.406 40.9427 50.5824 40.9427C49.7587 40.9427 49.0998 41.5947 49.0998 42.4097V45.6696C49.0998 46.4846 49.7587 47.1366 50.5824 47.1366C51.406 47.1366 52.065 46.4846 52.065 45.6696V42.4097ZM60.6311 38.1718C60.6311 37.3568 59.9722 36.7048 59.1485 36.7048C58.3248 36.7048 57.6659 37.3568 57.6659 38.1718V45.6696C57.6659 46.4846 58.3248 47.1366 59.1485 47.1366C59.9722 47.1366 60.6311 46.4846 60.6311 45.6696V38.1718ZM69.0325 32.467C69.0325 31.652 68.3735 31 67.5499 31C66.7262 31 66.0673 31.652 66.0673 32.467V48.7665C66.0673 49.5815 66.7262 50.2335 67.5499 50.2335C68.3735 50.2335 69.0325 49.5815 69.0325 48.7665V32.467ZM77.5986 38.1718C77.5986 37.3568 76.9397 36.7048 76.116 36.7048C75.2923 36.7048 74.6334 37.3568 74.6334 38.1718V45.6696C74.6334 46.4846 75.2923 47.1366 76.116 47.1366C76.9397 47.1366 77.5986 46.4846 77.5986 45.6696V38.1718ZM86 42.4097C86 41.5947 85.3411 40.9427 84.5174 40.9427C83.6937 40.9427 83.0348 41.5947 83.0348 42.4097V45.6696C83.0348 46.4846 83.6937 47.1366 84.5174 47.1366C85.3411 47.1366 86 46.4846 86 45.6696V42.4097ZM35.0974 55.6123H38.2274V67.837H35.0974V55.6123Z" fill="#0D274D"/>
</svg>
