<svg width="100" height="101" viewBox="0 0 100 101" fill="none" xmlns="http://www.w3.org/2000/svg">
<path fill-rule="evenodd" clip-rule="evenodd" d="M50 100.5C77.6142 100.5 100 78.1142 100 50.5C100 22.8858 77.6142 0.5 50 0.5C22.3858 0.5 0 22.8858 0 50.5C0 78.1142 22.3858 100.5 50 100.5Z" fill="#FF6200"/>
<path d="M48.3721 48.9775C48.5528 48.9297 48.7278 48.882 48.9079 48.8306C52.8635 47.7283 56.7112 46.2012 60.5347 44.6196C64.2779 43.0715 67.9802 41.2122 71.2327 38.5957C74.5705 35.9119 77.2554 32.4352 78.7373 28.1238C78.946 27.5237 79.3728 26.6583 79.4136 26C74.216 33.0245 53.5977 33.7496 53.5977 33.7496L58.4632 29.3378C38.9031 29.3745 25.2536 37.5803 19 41.969C27.003 42.8175 34.2479 46.168 39.9199 51.2127C42.7107 50.3586 45.5595 49.7416 48.3721 48.9775Z" fill="white"/>
<path d="M80.7076 48.2881C80.7076 48.2881 61.6826 46.85 41.9207 53.1395C44.5426 55.8468 46.7525 58.9435 48.4459 62.3389C58.8367 56.6224 73.2447 49.3189 80.7076 48.2881Z" fill="white"/>
<path d="M49.7485 65.2729C50.955 68.3395 51.7643 71.6016 52.1001 74.9998L70.2108 56.5898L49.7485 65.2729Z" fill="white"/>
</svg>
