<svg width="100" height="100" viewBox="0 0 100 100" fill="none" xmlns="http://www.w3.org/2000/svg">
<circle cx="50" cy="50" r="50" fill="#393E46"/>
<path fill-rule="evenodd" clip-rule="evenodd" d="M50 99C77.062 99 99 77.062 99 50C99 22.938 77.062 1 50 1C22.938 1 1 22.938 1 50C1 77.062 22.938 99 50 99ZM50 100C77.6142 100 100 77.6142 100 50C100 22.3858 77.6142 0 50 0C22.3858 0 0 22.3858 0 50C0 77.6142 22.3858 100 50 100Z" fill="#F8FAFA" fill-opacity="0.16"/>
<g clip-path="url(#clip0_27499_82413)">
<path d="M26 30H31.1707V56.8982C31.1707 59.5229 31.8415 61.5434 33.183 62.9597C34.5246 64.376 36.4387 65.0841 38.9253 65.0841H46V70H39.8216C35.1773 70 31.7131 68.8451 29.4291 66.5354C27.145 64.2257 26.002 60.7262 26 56.0367V30Z" fill="white"/>
<path d="M52 64.6814H65.1257C66.4468 64.6814 67.4839 64.4184 68.2369 63.8922C68.5934 63.6592 68.8847 63.3361 69.0826 62.9543C69.2805 62.5724 69.3783 62.1449 69.3663 61.7131C69.3708 61.3389 69.2974 60.9681 69.1511 60.625C69.0048 60.2818 68.7888 59.9743 68.5175 59.7225C67.9494 59.1731 66.8804 58.562 65.3105 57.8892L60.1116 55.7415C57.0541 54.4773 54.948 53.1875 53.7934 51.8721C52.6389 50.5568 52.0616 48.877 52.0616 46.8329C52.0616 44.3046 52.9389 42.3676 54.6936 41.022C56.4483 39.6763 58.9662 39.0023 62.2473 39H73.4837V44.1789H60.779C59.9196 44.1285 59.0685 44.3745 58.3626 44.8773C58.076 45.1101 57.8479 45.4093 57.6973 45.75C57.5468 46.0907 57.478 46.4632 57.4967 46.8364C57.5013 47.1605 57.5726 47.4799 57.7058 47.774C57.8391 48.0682 58.0313 48.3305 58.2702 48.5441C59.0339 49.1983 59.9038 49.7112 60.8406 50.0597L66.3168 52.3331C69.7257 53.7626 72.0268 55.1408 73.2202 56.4678C74.4135 57.7949 75.0068 59.4793 74.9999 61.521C74.9999 64.3892 73.9572 66.5171 71.8717 67.9047C69.7862 69.2923 66.5769 69.9907 62.2439 70H52V64.6814Z" fill="#FF8A00"/>
</g>
<defs>
<clipPath id="clip0_27499_82413">
<rect width="49" height="40" fill="white" transform="translate(26 30)"/>
</clipPath>
</defs>
</svg>
