<svg width="100" height="100" viewBox="0 0 100 100" fill="none" xmlns="http://www.w3.org/2000/svg">
<path fill-rule="evenodd" clip-rule="evenodd" d="M50 100C77.6142 100 100 77.6142 100 50C100 22.3858 77.6142 0 50 0C22.3858 0 0 22.3858 0 50C0 77.6142 22.3858 100 50 100Z" fill="#F8FAFA" fill-opacity="0.08"/>
<path fill-rule="evenodd" clip-rule="evenodd" d="M50 99C77.062 99 99 77.062 99 50C99 22.938 77.062 1 50 1C22.938 1 1 22.938 1 50C1 77.062 22.938 99 50 99ZM50 100C77.6142 100 100 77.6142 100 50C100 22.3858 77.6142 0 50 0C22.3858 0 0 22.3858 0 50C0 77.6142 22.3858 100 50 100Z" fill="#242B2E" fill-opacity="0.16"/>
<path d="M85.6032 51.6914C85.6095 48.839 84.7297 46.0546 83.0843 43.7196C81.4389 41.3847 79.1084 39.6135 76.4124 38.6488C76.9651 35.7749 76.8746 32.815 76.1474 29.9798C75.4201 27.1447 74.074 24.504 72.2048 22.2459C70.3356 19.9878 67.9894 18.1677 65.3332 16.9153C62.677 15.6629 59.7761 15.0089 56.837 15C53.6788 14.9963 50.565 15.7406 47.7528 17.1715C44.9405 18.6025 42.5106 20.679 40.6635 23.2296C39.0964 22.0245 37.2213 21.2808 35.2512 21.083C33.281 20.8851 31.2946 21.2411 29.5173 22.1103C27.74 22.9796 26.243 24.3275 25.1962 26.0009C24.1493 27.6744 23.5946 29.6065 23.5948 31.578C23.5992 32.8344 23.8213 34.0807 24.2513 35.262C21.5459 36.2256 19.2054 37.9974 17.5495 40.3352C15.8937 42.6731 15.0033 45.463 15 48.3237C14.9967 51.1844 15.8808 53.9763 17.5313 56.3179C19.1818 58.6596 21.5183 60.4367 24.2214 61.4064C23.353 65.8421 24.0344 70.4401 26.1525 74.437C28.2706 78.434 31.698 81.5895 35.8657 83.3798C40.0334 85.17 44.6908 85.4873 49.0645 84.2788C53.4383 83.0704 57.2655 80.4091 59.9106 76.7365C61.7521 78.1937 64.0337 78.9893 66.386 78.9945C69.1953 78.9937 71.8893 77.8822 73.8757 75.9045C75.8622 73.9267 76.9785 71.2445 76.9793 68.4476C76.9749 67.1911 76.7528 65.9448 76.3228 64.7636C79.0274 63.792 81.3674 62.0176 83.027 59.6799C84.6866 57.3423 85.5858 54.5539 85.6032 51.6914Z" fill="white"/>
<path d="M42.7524 45.1553L58.2098 52.1667L73.7865 38.5597C74.0167 37.4356 74.1267 36.2903 74.1147 35.1431C74.1173 31.4396 72.9286 27.8326 70.7226 24.8506C68.5167 21.8686 65.4095 19.6683 61.8563 18.5721C58.3032 17.476 54.4908 17.5416 50.9778 18.7593C47.4648 19.977 44.4358 22.2828 42.3346 25.339L39.7385 38.738L42.7524 45.1553Z" fill="#FED10A"/>
<path d="M26.7578 61.4364C26.5276 62.5806 26.4176 63.7456 26.4296 64.9124C26.4341 68.6313 27.6351 72.251 29.8563 75.2408C32.0776 78.2307 35.2023 80.4335 38.7726 81.5265C42.3429 82.6195 46.171 82.5451 49.6957 81.3142C53.2204 80.0834 56.2565 77.7608 58.3589 74.6869L60.9251 61.3473L57.4935 54.8112L41.9765 47.77L26.7578 61.4364Z" fill="#24BBB1"/>
<path d="M26.6685 34.8161L37.2618 37.3117L39.5894 25.3388C38.1524 24.2433 36.397 23.642 34.5872 23.6254C32.7774 23.6087 31.0111 24.1775 29.554 25.2463C28.0969 26.3151 27.0278 27.826 26.5074 29.5518C25.987 31.2777 26.0435 33.125 26.6685 34.8161Z" fill="#EF5098"/>
<path d="M25.7433 37.3413C23.4514 38.0901 21.4489 39.5278 20.0115 41.4564C18.574 43.385 17.7724 45.7098 17.7167 48.1108C17.6611 50.5118 18.3543 52.8709 19.7009 54.8634C21.0474 56.856 22.9812 58.384 25.236 59.2373L40.0966 45.868L37.3811 40.0746L25.7433 37.3413Z" fill="#17A8E0"/>
<path d="M61.0446 74.6864C62.4825 75.7686 64.2335 76.3587 66.036 76.3687C67.8385 76.3788 69.5959 75.8082 71.046 74.7421C72.496 73.6761 73.5609 72.1717 74.0817 70.4536C74.6025 68.7355 74.5513 66.8958 73.9356 65.2091L63.3721 62.7432L61.0446 74.6864Z" fill="#93C83E"/>
<path d="M63.1931 59.9805L74.8308 62.6841C77.1228 61.9352 79.1253 60.4976 80.5627 58.569C82.0001 56.6403 82.8018 54.3155 82.8574 51.9146C82.913 49.5136 82.2199 47.1545 80.8733 45.1619C79.5267 43.1694 77.5929 41.6413 75.3381 40.7881L60.1195 54.0683L63.1931 59.9805Z" fill="#0779A1"/>
</svg>
