<svg width="100" height="101" viewBox="0 0 100 101" fill="none" xmlns="http://www.w3.org/2000/svg">
<path d="M47.6659 0H52.2773C52.6372 0.0914099 53.251 0.0710357 53.6431 0.0933796C54.1807 0.127759 54.7173 0.176204 55.252 0.238667C57.4141 0.463134 59.5586 0.829594 61.6724 1.33568C74.2158 4.35419 85.1089 12.1029 92.0786 22.9644C96.4004 29.683 99.0415 37.344 99.7783 45.2995C99.8931 46.3615 99.9097 47.4493 99.9478 48.517C99.9556 48.7451 99.9336 48.934 100 49.1563V52.7015C99.9248 53.0283 99.9097 53.4245 99.8774 53.7636C99.8154 54.4226 99.7476 55.0806 99.6738 55.7386C99.4453 57.7132 99.103 59.6732 98.6475 61.6082C96.2271 71.7533 90.7026 80.8901 82.8438 87.7435C80.917 89.4568 79.1733 90.8578 77.0254 92.3107C72.0654 95.6634 66.5039 98.0234 60.6475 99.2604C59.5073 99.4988 58.3579 99.6883 57.2021 99.8295C56.8926 99.8661 55.668 99.9306 55.4585 100H52.5249H47.5179C47.2886 99.936 45.9707 99.8984 45.6259 99.8671C44.2524 99.7435 42.8843 99.5667 41.5245 99.3371C34.5906 98.1593 27.9859 95.5212 22.1477 91.5975C11.675 84.5823 4.23332 73.8725 1.30952 61.6067C0.820068 59.488 0.455095 57.3425 0.216467 55.1812C0.130937 54.4001 0.166074 52.9839 0 52.3043V47.6418C0.0805356 47.3545 0.14931 45.5682 0.191331 45.1383C0.317563 43.847 0.490186 42.6147 0.703711 41.3344C1.85988 34.707 4.34713 28.3829 8.01514 22.7443C15.0665 11.8776 26.0541 4.16924 38.6683 1.23968C40.7212 0.767103 42.8021 0.425277 44.8982 0.216252C45.3896 0.1652 45.8688 0.122471 46.3617 0.0887382C46.7516 0.0620435 47.3004 0.0937665 47.6659 0Z" fill="#16536F"/>
<path d="M47.6659 0H52.2773C52.6372 0.0914099 53.251 0.0710357 53.6431 0.0933796C54.1807 0.127759 54.7173 0.176204 55.252 0.238667C57.4141 0.463134 59.5586 0.829594 61.6724 1.33568C74.2158 4.35419 85.1089 12.1029 92.0786 22.9644C96.4004 29.683 99.0415 37.344 99.7783 45.2995C99.6538 45.9459 99.6309 45.7642 99.6602 46.4934C99.1929 46.0616 98.3516 45.0649 97.8979 44.5566L94.3066 40.5077L83.0669 27.9064L79.5073 23.916C78.7559 23.0666 77.853 21.9904 77.0684 21.2013C77.0439 23.4913 77.0859 25.7883 77.0688 28.0788C77.0649 28.5797 77.1025 29.183 77.041 29.6703L60.8745 32.2295L55.7959 33.0405C53.5454 33.4 51.6621 33.6815 49.3691 33.6177C47.6762 33.5706 46.2892 33.3762 44.6243 33.1165L39.928 32.3669L23.2932 29.734C23.3646 29.9934 23.9184 30.4399 24.1319 30.6315C26.8391 33.0606 29.4375 35.6814 32.1565 38.0901L64.1636 38.0912L70.8394 38.0877C71.1221 38.0875 73.2065 38.0686 73.3662 38.1173C72.9248 38.1804 71.3521 38.1463 70.8081 38.146L65.624 38.1437L38.8965 38.143L30.3588 38.1439C29.4731 38.1441 28.5849 38.1467 27.6994 38.1362C26.5971 38.1233 25.3551 38.0853 24.4403 38.8202C23.8666 39.1623 23.1839 40.0709 23.0786 40.7437C22.8783 41.5141 22.9473 43.1475 22.9478 44.0204L22.9505 48.3419L22.9494 56.8407C22.9492 59.0562 22.8567 61.2741 23.2076 63.4621C23.5298 65.4416 24.2153 67.3444 25.2293 69.0743C26.3762 71.0303 27.7048 72.3908 29.4719 73.7719C29.4728 73.9805 29.4484 73.9555 29.6054 74.1339C30.3435 74.9722 31.1094 75.8021 31.8593 76.6292L36.4644 81.6947L50.2813 96.9013C51.0918 97.7919 51.9126 98.6834 52.7109 99.5852C52.8486 99.7411 52.9492 99.7978 52.8755 99.8828C52.7451 99.9135 52.6372 99.9282 52.5249 100H47.5179C47.2886 99.936 45.9707 99.8984 45.6259 99.8671C44.2524 99.7435 42.8843 99.5667 41.5245 99.3371C34.5906 98.1593 27.9859 95.5212 22.1477 91.5975C11.675 84.5823 4.23332 73.8725 1.30952 61.6067C0.820068 59.488 0.455095 57.3425 0.216467 55.1812C0.130937 54.4001 0.166074 52.9839 0 52.3043V47.6418C0.0805356 47.3545 0.14931 45.5682 0.191331 45.1383C0.317563 43.847 0.490186 42.6147 0.703711 41.3344C1.85988 34.707 4.34713 28.3829 8.01514 22.7443C15.0665 11.8776 26.0541 4.16924 38.6683 1.23968C40.7212 0.767103 42.8021 0.425277 44.8982 0.216252C45.3896 0.1652 45.8688 0.122471 46.3617 0.0887382C46.7516 0.0620435 47.3004 0.0937665 47.6659 0Z" fill="#1C6B8F"/>
<path d="M22.951 20.9403C24.6065 21.1047 27.1353 21.5785 28.828 21.8421L41.5799 23.8657C44.9791 24.4006 48.4464 25.1435 51.9087 24.8118C54.2525 24.5871 56.6558 24.1424 58.9873 23.7683L70.3462 21.9692C72.376 21.6443 75.0186 21.1479 77.0108 20.9375C77.0537 23.3162 76.9771 25.7178 77.0093 28.0985C77.0161 28.6018 76.9771 29.1763 77.0411 29.6697L60.8745 32.2289L55.7959 33.0399C53.5454 33.3994 51.6621 33.6809 49.3692 33.6171C47.6762 33.57 46.2892 33.3756 44.6243 33.1159L39.9281 32.3663L23.2932 29.7333C23.1401 29.7023 23.1221 29.7001 22.9798 29.639C22.9256 29.417 22.9479 27.5538 22.948 27.1854L22.951 20.9403Z" fill="#FDFEFE"/>
<path d="M23.1671 21.1779C24.1578 21.3856 25.711 21.5805 26.7371 21.7414L34.3183 22.9405L42.3281 24.2147C45.056 24.648 47.4454 25.1323 50.2264 25.0977C52.5213 25.0692 54.2669 24.7467 56.5194 24.3891L62.5252 23.436L71.64 21.9864C73.2782 21.7293 75.1913 21.4771 76.8045 21.1699L76.8055 26.4556C76.806 27.414 76.8338 28.5419 76.7923 29.4891C76.2762 29.5439 75.5228 29.689 74.9915 29.7729L71.0316 30.4009L58.3397 32.4115C56.0501 32.773 53.2279 33.3122 50.9579 33.4041C47.5976 33.5401 43.8124 32.7654 40.4509 32.2265L29.4214 30.4781C27.4537 30.1645 25.1158 29.7332 23.1707 29.4954C23.1076 26.8093 23.1667 23.8834 23.1671 21.1779Z" fill="#9AC000"/>
<path d="M73.3662 38.1172C73.5942 38.1538 74.0248 38.2127 74.2343 38.2697C74.3886 38.3149 74.7568 38.4039 74.8608 38.5125C77.1606 40.4079 77.0209 41.795 76.9819 44.6292C76.9765 45.0208 77.0307 46.6085 76.9052 46.8274L76.8129 46.8982C76.2998 47.0569 75.5873 47.3747 75.079 47.584L72.1835 48.7738L70.1562 49.6047C69.9374 49.6941 69.3637 49.9071 69.1879 50.0033L69.1943 56.8827C69.1943 58.5969 69.2866 60.5744 68.9619 62.2315C68.6664 63.6389 67.958 65.2974 66.8876 66.2989C62.7158 70.2017 55.2885 70.4806 49.9252 70.5461C43.405 70.6257 32.9072 69.3692 31.042 61.7889C30.9025 62.0409 30.9527 62.8201 30.959 63.1328C28.7434 64.1582 26.4528 65.0654 24.2215 66.06C24.1722 66.082 24.1372 66.1562 24.1146 66.2002L24.0996 66.1513L24.0153 66.1694L23.9677 66.1176C23.7711 65.1284 23.5672 64.1406 23.356 63.1543C23.3008 62.8914 23.0555 61.8099 23.0491 61.592C23.0227 60.6955 23.0391 59.6985 23.0407 58.7957L23.0449 53.187L23.0428 45.2353C23.0428 43.8372 22.9941 42.0955 23.0786 40.7436C23.1839 40.0708 23.8665 39.1622 24.4402 38.8201C25.3551 38.0852 26.5971 38.1231 27.6993 38.1361C28.5849 38.1465 29.473 38.144 30.3588 38.1438L38.8964 38.1429L65.624 38.1436L70.808 38.1459C71.352 38.1462 72.9248 38.1803 73.3662 38.1172Z" fill="#16536F"/>
<path d="M73.3662 38.1172C73.5942 38.1538 74.0248 38.2127 74.2343 38.2697C74.3886 38.3149 74.7568 38.4039 74.8608 38.5125C77.1606 40.4079 77.0209 41.795 76.9819 44.6292C76.9765 45.0208 77.0307 46.6085 76.9052 46.8274L76.8129 46.8982C76.2998 47.0569 75.5873 47.3747 75.079 47.584L72.1835 48.7738L70.1562 49.6047C69.9374 49.6941 69.3637 49.9071 69.1879 50.0033L69.1118 49.9813L68.9819 50.0199L68.9804 46.9439L43.8412 46.9448C39.6184 46.9449 35.2216 47.0076 31.015 46.9403L31.0203 56.2979C31.02 56.8328 30.9814 59.7718 31.0473 60.0937L30.9654 60.125C30.9537 60.6609 30.9217 61.27 31.042 61.7889C30.9025 62.0409 30.9527 62.8201 30.959 63.1328C28.7434 64.1582 26.4528 65.0654 24.2215 66.06C24.1722 66.082 24.1372 66.1562 24.1146 66.2002L24.0996 66.1513L24.0153 66.1694L23.9677 66.1176C23.7711 65.1284 23.5672 64.1406 23.356 63.1543C23.3008 62.8914 23.0555 61.8099 23.0491 61.592C23.0227 60.6955 23.0391 59.6985 23.0407 58.7957L23.0449 53.187L23.0428 45.2353C23.0428 43.8372 22.9941 42.0955 23.0786 40.7436C23.1839 40.0708 23.8665 39.1622 24.4402 38.8201C25.3551 38.0852 26.5971 38.1231 27.6993 38.1361C28.5849 38.1465 29.473 38.144 30.3588 38.1438L38.8964 38.1429L65.624 38.1436L70.808 38.1459C71.352 38.1462 72.9248 38.1803 73.3662 38.1172Z" fill="#5CCFFE"/>
<path d="M30.9438 46.8021L69.1084 46.7988L69.1119 49.981L68.982 50.0196L68.9805 46.9436L43.8413 46.9445C39.6185 46.9446 35.2217 47.0073 31.0151 46.94L31.0204 56.2976C31.0201 56.8325 30.9815 59.7715 31.0474 60.0934L30.9655 60.1247C31.0393 57.4779 30.9743 54.5433 30.9759 51.8745L30.9771 48.7315C30.9772 48.1556 31.0019 47.3503 30.9438 46.8021Z" fill="#CFF1FE"/>
<path d="M73.3664 38.1172C73.5944 38.1538 74.025 38.2127 74.2345 38.2697C73.9904 38.2978 73.5128 38.2606 73.2257 38.259L70.6574 38.2531L62.2707 38.2551L37.475 38.2551L29.8144 38.2542C28.5745 38.2537 27.2905 38.2394 26.0473 38.2735C25.5872 38.2861 24.7234 38.7916 24.4404 38.8201C25.3553 38.0852 26.5973 38.1231 27.6995 38.1361C28.5851 38.1465 29.4732 38.144 30.359 38.1438L38.8966 38.1429L65.6242 38.1436L70.8083 38.1459C71.3522 38.1462 72.925 38.1803 73.3664 38.1172Z" fill="#FDFEFE"/>
<path d="M69.1117 49.9805L69.1879 50.0025L69.1943 56.8818C69.1943 58.596 69.2865 60.5735 68.9618 62.2306C68.6664 63.638 67.9579 65.2965 66.8876 66.298C62.7157 70.2008 55.2885 70.4797 49.9252 70.5452C43.405 70.6248 32.9072 69.3684 31.042 61.788C30.9217 61.2692 30.9536 60.66 30.9654 60.1241L31.0473 60.0928C31.1159 60.4431 31.1364 60.9946 31.2092 61.4206C31.4882 63.0547 32.2525 64.3952 33.3798 65.5872C36.8856 69.2941 43.8153 70.2765 48.7831 70.3278C54.1 70.383 62.6147 70.0704 66.6684 66.1905C67.6362 65.2643 68.3154 63.8911 68.6347 62.5975C69.1249 60.6151 68.9858 58.4382 68.9848 56.3859L68.9819 50.0191L69.1117 49.9805Z" fill="#FDFEFE"/>
<path d="M69.188 50.0035C69.3638 49.9073 69.9376 49.6943 70.1563 49.6049L72.1836 48.774L75.0791 47.5842C75.5875 47.3749 76.2999 47.0571 76.813 46.8984C76.7432 51.62 76.8677 56.3636 76.7876 61.0856C76.7666 62.3201 76.5113 63.9117 76.2291 65.1188C73.4693 76.918 59.8023 78.8604 49.6441 78.8804C42.5884 78.8946 32.7193 77.2234 27.5842 71.7939C26.4576 70.6068 25.5191 69.2536 24.8014 67.7827C24.5562 67.2703 24.3576 66.6918 24.1147 66.2004C24.1373 66.1564 24.1723 66.0822 24.2216 66.0602C26.4529 65.0656 28.7436 64.1584 30.9591 63.133C30.9528 62.8203 30.9026 62.0411 31.0421 61.7891C32.9073 69.3694 43.4051 70.6259 49.9253 70.5463C55.2886 70.4808 62.7159 70.2019 66.8877 66.2991C67.9581 65.2976 68.6666 63.6391 68.962 62.2317C69.2867 60.5746 69.1944 58.5971 69.1944 56.8829L69.188 50.0035Z" fill="#00B4FE"/>
<path d="M74.861 38.5117C76.0534 38.9903 76.9635 40.3591 77.0031 41.6282C77.0387 42.7529 77.0177 43.9148 77.0153 45.0419L77.0162 51.3034L77.0172 57.6879C77.0162 61.2546 77.0778 64.1661 75.6876 67.557C71.755 77.1471 60.1481 78.873 51.0499 79.0494C48.4537 79.1246 45.8555 79.0059 43.2771 78.6942C38.1815 78.0294 33.7386 76.6542 29.4721 73.7709C27.705 72.3899 26.3763 71.0293 25.2295 69.0733C24.2154 67.3435 23.53 65.4407 23.2077 63.4612C22.8568 61.2731 22.9493 59.0552 22.9495 56.8398L22.9507 48.3409L22.9479 44.0194C22.9474 43.1466 22.8784 41.5132 23.0787 40.7428C22.9943 42.0947 23.0429 43.8363 23.0429 45.2345L23.0451 53.1862L23.0409 58.7949C23.0392 59.6976 23.0229 60.6947 23.0492 61.5912C23.0556 61.809 23.301 62.8906 23.3562 63.1534C23.5674 64.1398 23.7713 65.1275 23.9679 66.1168L24.0155 66.1686L24.0998 66.1505L24.1148 66.1994C24.3576 66.6908 24.5563 67.2692 24.8014 67.7817C25.5192 69.2526 26.4577 70.6058 27.5843 71.7929C32.7194 77.2223 42.5885 78.8935 49.6442 78.8794C59.8024 78.8593 73.4694 76.917 76.2291 65.1178C76.5114 63.9106 76.7667 62.319 76.7877 61.0846C76.8678 56.3625 76.7433 51.619 76.8131 46.8974L76.9054 46.8266C77.0309 46.6077 76.9767 45.0199 76.9821 44.6284C77.0211 41.7942 77.1608 40.4071 74.861 38.5117Z" fill="#FDFEFE"/>
</svg>
