<svg width="100" height="100" viewBox="0 0 100 100" fill="none" xmlns="http://www.w3.org/2000/svg">
<path fill-rule="evenodd" clip-rule="evenodd" d="M50 100C77.6142 100 100 77.6142 100 50C100 22.3858 77.6142 0 50 0C22.3858 0 0 22.3858 0 50C0 77.6142 22.3858 100 50 100Z" fill="#F8FAFA" fill-opacity="0.08"/>
<path fill-rule="evenodd" clip-rule="evenodd" d="M50 99C77.062 99 99 77.062 99 50C99 22.938 77.062 1 50 1C22.938 1 1 22.938 1 50C1 77.062 22.938 99 50 99ZM50 100C77.6142 100 100 77.6142 100 50C100 22.3858 77.6142 0 50 0C22.3858 0 0 22.3858 0 50C0 77.6142 22.3858 100 50 100Z" fill="#242B2E" fill-opacity="0.16"/>
<path fill-rule="evenodd" clip-rule="evenodd" d="M75.7481 49.4976C75.7481 55.8853 75.7399 62.2779 75.7579 68.6672C75.7612 69.1758 75.6644 69.33 75.1067 69.3234C72.6362 69.2906 70.1658 69.3086 67.6954 69.3332C67.3525 69.3382 67.2656 69.2364 67.2902 68.9379C67.3017 68.8001 67.2951 68.659 67.2951 68.5196C67.2951 58.4673 67.2951 48.4166 67.2902 38.3642C67.2902 37.5063 67.4001 37.6211 66.5127 37.6179C64.8449 37.6062 63.1772 37.6073 61.5095 37.6211C61.1158 37.6277 61.0009 37.5096 61.0026 37.1192C61.019 34.7898 61.0141 32.4605 61.0026 30.1327C61.0026 29.8293 61.0321 29.6816 61.4176 29.6816C65.991 29.6997 70.5628 29.703 75.1362 29.6816C75.6562 29.6816 75.7596 29.8522 75.7596 30.328C75.7431 36.7156 75.7481 43.1083 75.7481 49.4976Z" fill="#00B3E6"/>
<path fill-rule="evenodd" clip-rule="evenodd" d="M41.9068 29C30.3503 28.9918 21.0066 38.119 21 49.4229C20.9918 60.7662 30.2748 69.9967 41.6936 70C53.2419 70.0033 62.5791 60.9073 62.5905 49.6444C62.6004 38.0927 53.5011 29.0082 41.9068 29ZM50.0727 58.9044C47.8352 61.1632 44.9711 62.0293 42.2152 62.0867C35.7865 62.09 31.1737 58.2433 29.7581 52.0279C28.5114 46.5358 31.5461 40.2449 36.6526 37.991C42.4055 35.4533 50.3122 37.0658 53.1813 44.8675C55.1268 50.1594 54.0425 54.892 50.0727 58.9044Z" fill="#00B3E6"/>
</svg>
