<svg width="100" height="101" viewBox="0 0 100 101" fill="none" xmlns="http://www.w3.org/2000/svg">
<path fill-rule="evenodd" clip-rule="evenodd" d="M50 100.5C77.6142 100.5 100 78.1142 100 50.5C100 22.8858 77.6142 0.5 50 0.5C22.3858 0.5 0 22.8858 0 50.5C0 78.1142 22.3858 100.5 50 100.5Z" fill="#B8232F"/>
<path fill-rule="evenodd" clip-rule="evenodd" d="M50 99.5C77.062 99.5 99 77.562 99 50.5C99 23.438 77.062 1.5 50 1.5C22.938 1.5 1 23.438 1 50.5C1 77.562 22.938 99.5 50 99.5ZM50 100.5C77.6142 100.5 100 78.1142 100 50.5C100 22.8858 77.6142 0.5 50 0.5C22.3858 0.5 0 22.8858 0 50.5C0 78.1142 22.3858 100.5 50 100.5Z" fill="#242B2E" fill-opacity="0.16"/>
<path fill-rule="evenodd" clip-rule="evenodd" d="M44.1095 23C52.5628 23 55.1435 23.9049 57.9415 25.569C62.593 28.2909 65.098 33.1266 65.098 39.1766C65.098 46.1275 61.9493 51.7213 56.5057 54.4412C54.2124 55.575 52.0607 56.1807 46.546 56.1807H41.0313V75.5294H31V23H44.1095ZM47.4024 31.538H41.0313V47.5632H46.2607C50.3436 47.5632 51.5632 47.0335 52.9202 44.8417C53.7849 43.4097 54.1387 41.8955 54.1387 39.3989C54.1387 34.4868 51.6327 31.538 47.4024 31.538Z" fill="white"/>
<path d="M71.6575 63.761L69.7059 60.6227L74.5848 56.1768H78.0001V75.5297H73.853V61.4073L71.6575 63.761Z" fill="white"/>
</svg>
