<svg width="100" height="100" viewBox="0 0 100 100" fill="none" xmlns="http://www.w3.org/2000/svg">
<path fill-rule="evenodd" clip-rule="evenodd" d="M50 100C77.6142 100 100 77.6142 100 50C100 22.3858 77.6142 0 50 0C22.3858 0 0 22.3858 0 50C0 77.6142 22.3858 100 50 100Z" fill="white"/>
<path fill-rule="evenodd" clip-rule="evenodd" d="M50 99C77.062 99 99 77.062 99 50C99 22.938 77.062 1 50 1C22.938 1 1 22.938 1 50C1 77.062 22.938 99 50 99ZM50 100C77.6142 100 100 77.6142 100 50C100 22.3858 77.6142 0 50 0C22.3858 0 0 22.3858 0 50C0 77.6142 22.3858 100 50 100Z" fill="#242B2E" fill-opacity="0.16"/>
<path d="M48.8754 42.3404C48.8754 43.7192 48.4664 45.067 47.7001 46.2133C46.9338 47.3597 45.8447 48.2529 44.5706 48.7802C43.2965 49.3074 41.8945 49.4449 40.5422 49.1753C39.1899 48.9056 37.948 48.2409 36.9736 47.2653C35.9992 46.2897 35.3361 45.047 35.0681 43.6945C34.8002 42.3419 34.9396 40.9403 35.4685 39.667C35.9974 38.3936 36.8922 37.3058 38.0396 36.5411C39.187 35.7763 40.5355 35.3691 41.9144 35.3709C42.8295 35.3709 43.7357 35.5512 44.5811 35.9015C45.4264 36.2518 46.1945 36.7652 46.8414 37.4125C47.4883 38.0597 48.0012 38.8281 48.351 39.6736C48.7008 40.5192 48.8805 41.4253 48.8799 42.3404M53.4286 42.3404C53.4286 40.0622 52.7529 37.8352 51.487 35.941C50.2211 34.0468 48.4219 32.5706 46.3169 31.6989C44.2118 30.8273 41.8956 30.5995 39.661 31.0443C37.4265 31.4891 35.3741 32.5865 33.7634 34.1977C32.1526 35.8089 31.0559 37.8616 30.612 40.0961C30.168 42.3307 30.3968 44.6466 31.2693 46.7512C32.1418 48.8557 33.6189 50.6542 35.5137 51.9192C37.4086 53.1843 39.636 53.859 41.9144 53.8581C44.9678 53.8557 47.8953 52.6412 50.0535 50.4814C52.2117 48.3217 53.424 45.3935 53.424 42.3404M72.4333 72.997H26.5577V64.2535C30.5874 66.9334 35.2686 68.4703 40.1028 68.7005C44.9369 68.9308 49.743 67.8457 54.0093 65.5609C58.2755 63.2761 61.8422 59.8771 64.3294 55.7259C66.8167 51.5746 68.1314 46.8266 68.1336 41.9874C68.1842 36.687 66.6163 31.4974 63.6392 27.1116H72.4423L72.4333 72.997ZM63.6392 41.9874C63.6392 46.2794 62.3967 50.4796 60.0615 54.0809C57.7264 57.6822 54.3986 60.5306 50.4799 62.2821C46.5612 64.0336 42.2192 64.6133 37.9782 63.9512C33.7372 63.2892 29.7786 61.4137 26.5803 58.5512V27.1297H57.9319C61.6135 31.2018 63.6479 36.498 63.6392 41.9874ZM77 22.5H22V77.5H77V22.5Z" fill="#050F34"/>
</svg>
