<svg width="100" height="100" viewBox="0 0 100 100" fill="none" xmlns="http://www.w3.org/2000/svg">
<path fill-rule="evenodd" clip-rule="evenodd" d="M50 100C77.6142 100 100 77.6142 100 50C100 22.3858 77.6142 0 50 0C22.3858 0 0 22.3858 0 50C0 77.6142 22.3858 100 50 100Z" fill="#F8FAFA" fill-opacity="0.08"/>
<path fill-rule="evenodd" clip-rule="evenodd" d="M50 99C77.062 99 99 77.062 99 50C99 22.938 77.062 1 50 1C22.938 1 1 22.938 1 50C1 77.062 22.938 99 50 99ZM50 100C77.6142 100 100 77.6142 100 50C100 22.3858 77.6142 0 50 0C22.3858 0 0 22.3858 0 50C0 77.6142 22.3858 100 50 100Z" fill="#242B2E" fill-opacity="0.16"/>
<path d="M56.8165 34.6979C57.1189 34.8723 57.099 35.1141 56.7711 35.2356L37.5985 42.3386C37.3942 42.4403 37.1469 42.3575 37.0453 42.1531C37.0099 42.0826 36.9956 42.0041 37.0044 41.9257V23.8914C37.0044 23.5425 37.2517 23.4001 37.5543 23.5745L56.8165 34.6979ZM61.3778 37.3291C61.0233 37.1502 60.6136 37.1149 60.2338 37.2319L37.5951 45.6192C37.2495 45.7671 37.0188 46.0983 37 46.4738V47.8264C37.0011 48.1764 37.2849 48.4591 37.6338 48.4601H80.016C80.365 48.4601 80.4036 48.3177 80.101 48.1454L61.3778 37.3291Z" fill="#00CCCC"/>
<path d="M37.5524 76.4258C37.2499 76.6002 37.0025 76.4566 37.0025 76.1088V58.0746C36.9937 57.9961 37.0081 57.9166 37.0434 57.847C37.145 57.6428 37.3934 57.56 37.5966 57.6615L56.7693 64.7647C57.0972 64.8861 57.1171 65.1269 56.8145 65.3024L37.5524 76.4258Z" fill="#00CCCC"/>
<path d="M80.1 51.8528C80.4024 51.6815 80.3638 51.5381 80.0148 51.5381H37.6338C37.2838 51.5391 37.0011 51.823 37 52.1718V53.5244C37.0188 53.8999 37.2495 54.2311 37.5951 54.379L60.2338 62.7663C60.6136 62.8834 61.0233 62.8479 61.3778 62.6691L80.1 51.8528Z" fill="#00CCCC"/>
</svg>
