<svg width="100" height="100" viewBox="0 0 100 100" fill="none" xmlns="http://www.w3.org/2000/svg">
<path fill-rule="evenodd" clip-rule="evenodd" d="M50 100C77.6142 100 100 77.6142 100 50C100 22.3858 77.6142 0 50 0C22.3858 0 0 22.3858 0 50C0 77.6142 22.3858 100 50 100Z" fill="white"/>
<path fill-rule="evenodd" clip-rule="evenodd" d="M50 99C77.062 99 99 77.062 99 50C99 22.938 77.062 1 50 1C22.938 1 1 22.938 1 50C1 77.062 22.938 99 50 99ZM50 100C77.6142 100 100 77.6142 100 50C100 22.3858 77.6142 0 50 0C22.3858 0 0 22.3858 0 50C0 77.6142 22.3858 100 50 100Z" fill="#242B2E" fill-opacity="0.16"/>
<path d="M31.9065 64.8572C31.0421 64.5957 30.4066 64.4204 29.5599 64.0593C27.034 63.0012 24.944 61.114 23.6345 58.7087C20.1986 52.2775 22.1012 43.5746 28.7189 40.0138C32.462 37.9997 36.6319 37.96 40.6529 39.0846C42.3833 39.5837 44.0412 40.7135 45.4041 41.8681C44.4933 42.9182 43.4009 44.3154 42.4665 45.2762C40.6956 43.4805 37.9319 42.5747 35.4531 42.5467C32.875 42.5176 31.0803 43.3284 29.2474 45.0984C27.5269 46.7637 26.7453 49.4009 26.7522 51.7619C26.7595 54.2365 27.4971 56.7849 29.2599 58.599C30.8353 60.2203 33.2432 61.0871 35.4865 61.0939C37.3647 61.0996 40.4771 60.4346 41.9053 59.1459C42.0411 57.5102 41.8617 55.3015 41.9332 53.606C39.681 53.5385 37.2068 53.5735 34.9421 53.5894C35.1812 52.381 35.3199 50.9159 35.5322 49.6595L46.324 49.6658L46.321 57.1437C46.3213 58.4407 46.3578 59.963 46.3086 61.2438C44.0927 63.2459 41.6257 64.2582 38.7785 64.9635C37.1832 65.2695 35.5624 65.3608 33.9406 65.2052C33.3573 65.1495 32.5021 64.966 31.9065 64.8572Z" fill="black"/>
<path d="M14 38.7843L18.5806 38.7754L18.589 64.7906C17.4697 64.7919 16.2499 64.8167 15.1388 64.7863C14.8011 64.8039 14.3463 64.7889 14 64.7876V38.9637V38.7843Z" fill="black"/>
<path d="M14 38.9629L14.2042 39.0067C14.3356 39.2145 14.2281 62.3922 14.2655 64.7383C14.5043 64.7405 14.925 64.7306 15.1388 64.7855C14.8011 64.8031 14.3463 64.7881 14 64.7868V38.9629Z" fill="black"/>
<path d="M71.0337 21.5H75.5817L75.5834 21.7223L75.6464 34.0609L71.0474 34.0601C70.969 30.7729 71.0418 27.4654 71.0033 24.1764C70.9938 23.3661 70.9737 22.5301 70.9994 21.7223L71.0337 21.5Z" fill="black"/>
<path d="M50.8643 38.7715C52.6643 38.8034 54.5376 38.7791 56.3427 38.779L66.5023 38.7783C66.4706 39.1531 66.486 39.7683 66.4856 40.1597C66.4843 41.0426 66.4886 41.9254 66.4993 42.8082C62.8579 42.8816 59.0485 42.829 55.3946 42.8245C55.3228 44.9964 55.3766 47.4695 55.379 49.6615L65.435 49.6754L65.4341 53.72C65.0561 53.7015 64.6296 53.7078 64.2493 53.7131C61.3084 53.754 58.3374 53.6522 55.3996 53.7261C55.3716 54.3325 55.3798 54.9969 55.3766 55.6082L55.3847 60.7342C58.619 60.821 61.8956 60.7058 65.1341 60.752C65.9455 60.7636 66.8543 60.7812 67.6605 60.7359L67.6683 64.7937L50.8579 64.7894L50.8535 51.0863C50.8538 47.0045 50.8096 42.8466 50.8643 38.7715Z" fill="black"/>
<path d="M70.9709 38.7775L75.5943 38.7773L75.5935 60.6718C79.117 60.72 82.7412 60.6805 86.2694 60.6822C86.2617 62.0512 86.2617 63.4202 86.2699 64.7894L70.9705 64.7855L70.9709 38.7775Z" fill="black"/>
<path d="M83.4121 27.623C83.6222 27.7873 84.215 28.4067 84.4396 28.6304L86.6467 30.8464C86.2142 31.3139 85.6017 31.8879 85.1336 32.363C83.8211 33.7192 82.4772 35.0442 81.1026 36.3373C80.6508 36.7626 80.2401 37.3016 79.781 37.6869C79.6271 37.7045 79.505 37.4672 79.3935 37.3415C78.5152 36.3509 77.5306 35.4242 76.573 34.5086C78.0193 33.0329 79.4771 31.5639 80.9311 30.0961C81.7044 29.3157 82.7203 28.4696 83.4121 27.623Z" fill="black"/>
<path d="M63.2918 27.6582C63.4127 27.6705 69.4232 33.8977 70.0898 34.5154C69.9119 34.6579 69.7421 34.8355 69.5793 34.9959C68.989 35.5759 68.388 36.1465 67.8137 36.7417C67.4896 37.0775 67.1938 37.4354 66.838 37.7383C64.7801 35.3822 62.2343 33.0653 60.0156 30.8409C60.4173 30.4127 60.9261 29.993 61.3483 29.5815C62.0011 28.9457 62.6467 28.3017 63.2918 27.6582Z" fill="black"/>
<path d="M80.1414 38.6992C82.1637 38.737 84.2195 38.6954 86.2552 38.7248C86.2355 39.1348 86.2582 39.7486 86.2599 40.1695L86.2668 43.1959C84.2311 43.2268 82.1813 43.2003 80.1431 43.2163L80.1414 38.6992Z" fill="black"/>
</svg>
