<svg width="100" height="100" viewBox="0 0 100 100" fill="none" xmlns="http://www.w3.org/2000/svg">
<path fill-rule="evenodd" clip-rule="evenodd" d="M50 100C77.6142 100 100 77.6142 100 50C100 22.3858 77.6142 0 50 0C22.3858 0 0 22.3858 0 50C0 77.6142 22.3858 100 50 100Z" fill="white"/>
<path fill-rule="evenodd" clip-rule="evenodd" d="M50 99C77.062 99 99 77.062 99 50C99 22.938 77.062 1 50 1C22.938 1 1 22.938 1 50C1 77.062 22.938 99 50 99ZM50 100C77.6142 100 100 77.6142 100 50C100 22.3858 77.6142 0 50 0C22.3858 0 0 22.3858 0 50C0 77.6142 22.3858 100 50 100Z" fill="#242B2E" fill-opacity="0.16"/>
<path d="M55.2379 84.5C52.9254 84.5 50.7285 84.063 48.6472 83.189C46.5659 82.315 44.7159 81.096 43.0971 79.532C41.3396 80.13 39.5127 80.429 37.6164 80.429C34.5177 80.429 31.6501 79.67 29.0139 78.152C26.3776 76.634 24.2501 74.564 22.6313 71.942C21.0588 69.32 20.2725 66.399 20.2725 63.179C20.2725 61.845 20.4575 60.396 20.8275 58.832C18.9775 57.13 17.5438 55.175 16.5263 52.967C15.5088 50.713 15 48.367 15 45.929C15 43.445 15.5319 41.053 16.5956 38.753C17.6594 36.453 19.1394 34.475 21.0357 32.819C22.9782 31.117 25.2213 29.944 27.7651 29.3C28.2739 26.678 29.3376 24.332 30.9564 22.262C32.6214 20.146 34.6564 18.49 37.0614 17.294C39.4665 16.098 42.0333 15.5 44.7621 15.5C47.0746 15.5 49.2715 15.937 51.3528 16.811C53.4341 17.685 55.2841 18.904 56.9029 20.468C58.6604 19.87 60.4873 19.571 62.3836 19.571C65.4823 19.571 68.3499 20.33 70.9861 21.848C73.6224 23.366 75.7268 25.436 77.2993 28.058C78.9181 30.68 79.7275 33.601 79.7275 36.821C79.7275 38.155 79.5425 39.604 79.1725 41.168C81.0225 42.87 82.4562 44.848 83.4737 47.102C84.4912 49.31 85 51.633 85 54.071C85 56.555 84.4681 58.947 83.4044 61.247C82.3406 63.547 80.8375 65.548 78.8949 67.25C76.9987 68.906 74.7787 70.056 72.2349 70.7C71.7261 73.322 70.6393 75.668 68.9742 77.738C67.3555 79.854 65.3436 81.51 62.9386 82.706C60.5335 83.902 57.9666 84.5 55.2379 84.5ZM38.1021 75.875C40.4146 75.875 42.4265 75.392 44.1377 74.426L57.1804 66.974C57.6429 66.652 57.8741 66.215 57.8741 65.663V59.729L41.0852 69.32C40.0677 69.918 39.0502 69.918 38.0327 69.32L24.9207 61.799C24.9207 61.937 24.8976 62.098 24.8513 62.282C24.8513 62.466 24.8513 62.742 24.8513 63.11C24.8513 65.456 25.4063 67.618 26.5163 69.596C27.6726 71.528 29.2682 73.046 31.3033 74.15C33.3383 75.3 35.6045 75.875 38.1021 75.875ZM38.7958 64.628C39.0733 64.766 39.3277 64.835 39.559 64.835C39.7902 64.835 40.0215 64.766 40.2527 64.628L45.4559 61.661L28.7364 52.001C27.7189 51.403 27.2101 50.506 27.2101 49.31V34.337C24.8976 35.349 23.0476 36.913 21.6601 39.029C20.2725 41.099 19.5788 43.399 19.5788 45.929C19.5788 48.183 20.1569 50.345 21.3132 52.415C22.4694 54.485 23.9726 56.049 25.8226 57.107L38.7958 64.628ZM55.2379 79.946C57.6891 79.946 59.9092 79.394 61.8979 78.29C63.8867 77.186 65.4592 75.668 66.6155 73.736C67.7717 71.804 68.3499 69.642 68.3499 67.25V52.346C68.3499 51.794 68.1186 51.38 67.6561 51.104L62.3836 48.068V67.319C62.3836 68.515 61.8748 69.412 60.8573 70.01L47.7453 77.531C50.0116 79.141 52.5091 79.946 55.2379 79.946ZM57.8741 54.692V45.308L50.0347 40.892L42.1258 45.308V54.692L50.0347 59.108L57.8741 54.692ZM37.6164 32.681C37.6164 31.485 38.1252 30.588 39.1427 29.99L52.2547 22.469C49.9884 20.859 47.4909 20.054 44.7621 20.054C42.3109 20.054 40.0908 20.606 38.1021 21.71C36.1133 22.814 34.5408 24.332 33.3845 26.264C32.2745 28.196 31.7195 30.358 31.7195 32.75V47.585C31.7195 48.137 31.9508 48.574 32.4133 48.896L37.6164 51.932V32.681ZM72.8593 65.663C75.1718 64.651 76.9987 63.087 78.3399 60.971C79.7275 58.855 80.4212 56.555 80.4212 54.071C80.4212 51.817 79.8431 49.655 78.6868 47.585C77.5306 45.515 76.0274 43.951 74.1774 42.893L61.2042 35.441C60.9267 35.257 60.6723 35.188 60.441 35.234C60.2098 35.234 59.9785 35.303 59.7473 35.441L54.5441 38.339L71.333 48.068C71.8418 48.344 72.2118 48.712 72.443 49.172C72.7205 49.586 72.8593 50.092 72.8593 50.69V65.663ZM58.9148 30.611C59.9323 29.967 60.9498 29.967 61.9673 30.611L75.1487 38.27C75.1487 37.948 75.1487 37.534 75.1487 37.028C75.1487 34.82 74.5937 32.727 73.4837 30.749C72.4199 28.725 70.8705 27.115 68.8355 25.919C66.8467 24.723 64.5342 24.125 61.8979 24.125C59.5854 24.125 57.5735 24.608 55.8623 25.574L42.8196 33.026C42.3571 33.348 42.1258 33.785 42.1258 34.337V40.271L58.9148 30.611Z" fill="black"/>
</svg>
