<svg width="100" height="100" viewBox="0 0 100 100" fill="none" xmlns="http://www.w3.org/2000/svg">
<path fill-rule="evenodd" clip-rule="evenodd" d="M50 100C77.6142 100 100 77.6142 100 50C100 22.3858 77.6142 0 50 0C22.3858 0 0 22.3858 0 50C0 77.6142 22.3858 100 50 100Z" fill="#F8FAFA" fill-opacity="0.08"/>
<path fill-rule="evenodd" clip-rule="evenodd" d="M50 99C77.062 99 99 77.062 99 50C99 22.938 77.062 1 50 1C22.938 1 1 22.938 1 50C1 77.062 22.938 99 50 99ZM50 100C77.6142 100 100 77.6142 100 50C100 22.3858 77.6142 0 50 0C22.3858 0 0 22.3858 0 50C0 77.6142 22.3858 100 50 100Z" fill="#242B2E" fill-opacity="0.16"/>
<path fill-rule="evenodd" clip-rule="evenodd" d="M74.322 25.678C75.0177 26.3736 75.0177 27.5014 74.322 28.197L70.4528 32.0662C71.9991 33.6661 72.7446 35.905 72.376 38.0891L72.0855 39.8109C71.5646 42.898 70.2454 45.7586 68.246 48.1102L65.7604 51.0337C64.097 52.9901 61.1987 52.863 59.4921 51.1565L48.8435 40.5079C47.137 38.8013 47.0099 35.903 48.9663 34.2396L51.8898 31.754C54.2414 29.7546 57.102 28.4354 60.1891 27.9145L61.9109 27.6239C64.095 27.2554 66.3339 28.0009 67.9338 29.5472L71.803 25.678C72.4986 24.9823 73.6264 24.9823 74.322 25.678ZM65.5032 32.1532C64.6689 31.319 63.5309 30.9635 62.5036 31.1368L60.7818 31.4273C58.3138 31.8438 56.049 32.8938 54.1974 34.4681L51.2739 36.9537C51.0903 37.1098 50.9476 37.5738 51.3626 37.9888L62.0112 48.6374C62.4262 49.0524 62.8902 48.9097 63.0463 48.7261L65.5319 45.8026C67.1062 43.951 68.1562 41.6862 68.5727 39.2182L68.8632 37.4964C69.0365 36.4691 68.681 35.3311 67.8468 34.4968L65.5032 32.1532ZM48.197 44.678C48.8927 45.3736 48.8927 46.5014 48.197 47.197L44.5292 50.8649L49.1351 55.4708L52.803 51.803C53.4986 51.1073 54.6264 51.1073 55.322 51.803C56.0177 52.4986 56.0177 53.6264 55.322 54.322L51.6542 57.9899L52.1565 58.4921C53.863 60.1987 53.9901 63.097 52.0337 64.7604L49.1102 67.246C46.7586 69.2454 43.898 70.5646 40.8109 71.0855L39.0891 71.3761C36.905 71.7446 34.6661 70.9991 33.0662 69.4528L29.197 73.322C28.5014 74.0177 27.3736 74.0177 26.678 73.322C25.9823 72.6264 25.9823 71.4986 26.678 70.803L30.5472 66.9338C29.0009 65.3339 28.2554 63.095 28.6239 60.9109L28.9145 59.1891C29.4354 56.102 30.7546 53.2414 32.754 50.8898L35.2396 47.9663C36.903 46.0099 39.8013 46.137 41.5079 47.8435L42.0101 48.3458L45.678 44.678C46.3736 43.9823 47.5014 43.9823 48.197 44.678ZM38.9888 50.3626C38.5738 49.9476 38.1098 50.0903 37.9537 50.2739L35.4681 53.1974C33.8938 55.049 32.8438 57.3138 32.4273 59.7818L32.1368 61.5036C31.9635 62.5309 32.319 63.6689 33.1532 64.5032L35.4968 66.8468C36.3311 67.681 37.4691 68.0365 38.4964 67.8632L40.2182 67.5727C42.6862 67.1562 44.951 66.1062 46.8026 64.5319L49.7261 62.0463C49.9097 61.8902 50.0524 61.4262 49.6374 61.0112L38.9888 50.3626Z" fill="#E85E26"/>
</svg>
