<svg width="100" height="100" viewBox="0 0 100 100" fill="none" xmlns="http://www.w3.org/2000/svg">
<path fill-rule="evenodd" clip-rule="evenodd" d="M50 100C77.6142 100 100 77.6142 100 50C100 22.3858 77.6142 0 50 0C22.3858 0 0 22.3858 0 50C0 77.6142 22.3858 100 50 100Z" fill="#005476"/>
<path d="M14.1876 45.2754C15.6011 43.8301 17.3044 43.1074 19.2974 43.1074H23.0219V47.1255H19.3044C18.4281 47.111 17.58 47.4724 16.9722 48.1156C16.3432 48.7371 15.9898 49.6043 16.004 50.5004V57.8933H12.0674V50.5004C12.0674 48.4624 12.7741 46.7208 14.1876 45.2754Z" fill="#D58031"/>
<path d="M25.757 55.7175C24.3435 54.2721 23.6367 52.5305 23.6367 50.4926C23.6367 48.4546 24.3435 46.713 25.757 45.2676C27.1704 43.8223 28.8737 43.0996 30.8667 43.0996C32.8597 43.0996 34.4146 43.3959 35.5312 43.9957C37.2416 44.9497 38.0896 46.5179 38.0967 48.6931C38.0967 49.9361 37.5243 50.9045 36.3793 51.5983C35.3757 52.1981 34.1248 52.4944 32.6265 52.4944H30.6618V48.4908H32.6265C33.1424 48.498 33.6513 48.4113 34.1319 48.2378C33.9905 47.4935 32.9021 47.1249 30.8667 47.1249C29.0433 47.1249 27.5662 48.6353 27.5662 50.4926V50.4998C27.5662 52.3643 29.0362 53.8747 30.8596 53.8747H32.8315V57.8927H30.8667C28.8737 57.8927 27.1704 57.1701 25.757 55.7175Z" fill="#D58031"/>
<path d="M48.0478 43.1074H51.9773V50.5004C51.9773 52.9647 51.1363 54.8798 49.4471 56.2456C48.0902 57.3441 46.5212 57.8933 44.7473 57.8933H39.27V43.1074H43.1995V53.8753H44.7402C45.4187 53.868 46.083 53.6801 46.6696 53.3333C47.5813 52.7551 48.0407 51.8156 48.0407 50.5004L48.0478 43.1074Z" fill="#D58031"/>
<path d="M54.3308 56.672C53.7018 55.9566 53.3838 55.0966 53.3838 54.0921V43.3242H57.3133V53.8753H58.854V57.8933H57.1013C55.9563 57.8933 55.0305 57.4886 54.3308 56.672Z" fill="#D58031"/>
<path d="M68.8967 43.1074H72.8262V50.5004C72.8262 52.9647 71.9851 54.8798 70.296 56.2456C68.9391 57.3441 67.3701 57.8933 65.5962 57.8933H60.1189V43.1074H64.0484V53.8753H65.5962C66.2746 53.868 66.939 53.6801 67.5256 53.3333C68.4373 52.7551 68.8967 51.8156 68.8967 50.5004V43.1074Z" fill="#D58031"/>
<path d="M83.0034 57.8933V50.5004C83.0034 49.1851 82.544 48.2384 81.6323 47.6675C81.0457 47.3278 80.3813 47.1399 79.7029 47.1255H78.1551V57.8933H74.2327V43.1074H79.7099C81.4909 43.1074 83.0528 43.6567 84.4098 44.7551C86.0918 46.121 86.9329 48.0361 86.9329 50.5004V57.8933H83.0034Z" fill="#D58031"/>
</svg>
