<svg width="100" height="101" viewBox="0 0 100 101" fill="none" xmlns="http://www.w3.org/2000/svg">
<path d="M100 50.5C100 78.1183 77.6183 100.5 50 100.5C22.3817 100.5 0 78.1183 0 50.5C0 22.8817 22.3817 0.5 50 0.5C77.6183 0.5 100 22.8817 100 50.5Z" fill="#00A0DF"/>
<path d="M54.8377 21.6602C50.0796 21.6602 45.6139 22.9361 41.7595 25.1689V47.8165C41.7595 40.5863 47.6075 34.7383 54.8377 34.7383C62.0679 34.7383 67.9158 40.5863 67.9158 47.8165C67.9158 55.0467 62.0679 60.8946 54.8377 60.8946C47.6075 60.8946 41.7595 55.0467 41.7595 47.8165V70.4906C45.6139 72.7234 50.0796 73.9993 54.8377 73.9993C69.2981 73.9993 80.994 62.2768 80.994 47.843C80.994 33.4092 69.2715 21.6867 54.8377 21.6867V21.6602Z" fill="#82C5EC"/>
<path d="M41.7596 25.1689V21.6602H18.8728V34.7383H28.6814V47.8165C28.6814 38.1408 33.9446 29.6878 41.7596 25.1689Z" fill="#82C5EC"/>
<path d="M28.6814 47.8176V83.7825H41.7595V70.4651C33.9446 65.9462 28.6814 57.4933 28.6814 47.791V47.8176Z" fill="#82C5EC"/>
<path d="M41.7595 34.7373V25.168C33.9446 29.6868 28.6814 38.1398 28.6814 47.8155C28.6814 57.4912 33.9446 65.9442 41.7595 70.4896V34.7373Z" fill="white"/>
</svg>
