<svg width="100" height="100" viewBox="0 0 100 100" fill="none" xmlns="http://www.w3.org/2000/svg">
<path fill-rule="evenodd" clip-rule="evenodd" d="M50 100C77.6142 100 100 77.6142 100 50C100 22.3858 77.6142 0 50 0C22.3858 0 0 22.3858 0 50C0 77.6142 22.3858 100 50 100Z" fill="#632CA6"/>
<g clip-path="url(#clip0_138_26984)">
<path d="M41.8748 33.1627C44.3428 31.4913 47.5223 32.1482 46.9903 32.6519C45.9759 33.6124 47.3256 33.3285 47.4712 35.1008C47.5782 36.4062 47.1493 37.125 46.7802 37.534C46.0097 37.6342 45.0732 37.8211 43.9454 38.1856C43.278 38.4014 42.698 38.6408 42.1896 38.8817C42.0558 38.7948 41.9102 38.6885 41.7378 38.5406C39.997 37.0405 40.0552 34.3953 41.8748 33.1627ZM56.617 43.4955C57.0648 43.1506 59.1 42.5006 60.9841 42.2793C61.9734 42.1635 63.3837 42.0962 63.6843 42.2636C64.2817 42.5913 64.2817 43.6058 63.8724 44.5428C63.2767 45.9037 62.4346 47.4077 61.4807 47.5313C59.9248 47.7354 58.4539 46.8986 56.7744 45.6518C56.1747 45.2037 55.8064 44.1181 56.617 43.4955ZM59.4558 30.2422C61.753 31.3043 61.4524 33.3254 61.5161 34.5126C61.5335 34.8537 61.5279 35.0836 61.4988 35.2416C61.1809 35.0703 60.678 34.9444 59.8807 34.9796C59.6478 34.989 59.4211 35.0163 59.2016 35.0508C58.3539 34.5995 57.8471 33.7164 57.3836 32.7779C57.3411 32.691 57.308 32.6136 57.2765 32.5385C57.2631 32.5041 57.249 32.4674 57.2356 32.4361C57.2301 32.4189 57.2262 32.4056 57.2199 32.3899C56.9657 31.5882 57.1364 31.4279 57.2435 31.1807C57.3544 30.9281 57.7692 30.7201 57.1561 30.5097C57.1034 30.4901 57.0381 30.4792 56.9641 30.4651C57.3702 29.9645 58.5861 29.8433 59.4558 30.2422ZM46.9321 54.4063C44.457 52.8272 41.896 50.5621 40.7761 49.3083C40.588 49.1675 40.6187 48.5426 40.6187 48.5426C41.6292 49.3232 45.8216 52.3 50.2548 53.6593C51.8186 54.1396 54.2182 54.321 56.2998 53.1486C57.8904 52.2523 59.8052 50.6904 60.9479 49.0807L61.1573 49.4413C61.1494 49.6806 60.6237 50.8468 60.3561 51.3153C60.8393 51.5914 61.1998 51.6665 61.7373 51.8127L65.4079 51.2441C66.7253 49.1292 67.6698 45.7183 66.6632 42.4717C66.0887 40.6094 63.0933 36.9013 62.8784 36.6972C62.1261 35.9784 63.0044 33.2018 61.513 30.1726C59.9366 26.9682 55.8292 23.6269 54.0451 22.1729C54.5708 22.5546 57.8085 23.8521 59.318 25.6628C59.4597 25.4758 59.5179 24.5036 59.6478 24.2573C58.3516 22.5702 58.2508 19.5684 58.2508 18.7659C58.2508 17.2947 57.4985 15.6272 57.4985 15.6272C57.4985 15.6272 58.7947 16.6471 59.1299 18.4038C59.5258 20.4842 60.3695 22.1228 61.4854 23.5095C63.5978 26.1242 65.5055 27.4656 66.4696 26.4997C67.6233 25.339 65.2993 20.1471 62.3307 17.2493C58.8655 13.8674 57.9597 14.303 55.9268 15.0242C54.3048 15.599 53.4281 20.1761 49.2002 20.0854C48.4841 20.0024 46.6393 19.9579 45.7272 19.9657C46.2025 19.3063 46.6102 18.7972 46.6102 18.7972C46.6102 18.7972 45.192 19.3642 43.9832 20.083L43.8903 19.9446C44.298 19.0905 44.7363 18.5508 44.7363 18.5508C44.7363 18.5508 43.603 19.2274 42.5689 20.0376C42.757 19.0193 43.4693 18.374 43.4693 18.374C43.4693 18.374 42.0377 18.6306 40.2142 20.6242C38.142 21.1874 37.6438 21.5573 35.9927 22.2839C33.3074 21.702 32.0411 20.7627 30.8338 19.0334C29.9146 17.7124 28.2784 17.5121 26.6068 18.1949C24.1695 19.1961 21.0867 20.5672 21.0867 20.5672C21.0867 20.5672 22.0918 20.5265 23.1393 20.5711C21.7053 21.1107 20.3281 21.853 20.3281 21.853C20.3281 21.853 20.9994 21.8295 21.8281 21.8436C21.256 22.316 20.9396 22.5413 20.3942 22.9003C19.083 23.8466 18.0198 24.9401 18.0198 24.9401C18.0198 24.9401 18.9099 24.5373 19.7095 24.3112C19.1507 25.5838 18.0426 26.5208 18.2464 28.0788C18.4424 29.5015 20.1998 32.4322 22.4679 34.2311C22.6639 34.3875 25.7624 37.2368 28.0998 36.0667C30.4356 34.8982 31.3572 33.8572 31.7413 32.2609C32.193 30.4275 31.9357 29.0408 30.9708 25.0613C30.6528 23.7481 29.8241 21.0435 29.4243 19.7498L29.5132 19.6865C30.2774 21.2891 32.2331 25.5134 33.0209 28.351C34.251 32.7755 33.867 35.0203 33.3043 35.8431C31.6067 38.3248 27.2569 38.6525 25.2784 37.2775C24.9754 42.0415 26.0465 44.1392 26.4093 45.1958C26.2291 46.4105 27.0208 48.6662 27.0208 48.6662C27.0208 48.6662 27.1097 47.6408 27.4725 47.1003C27.5693 48.3056 28.1808 49.7377 28.1808 49.7377C28.1808 49.7377 28.1438 48.8531 28.4217 48.089C28.8136 48.7483 29.1008 48.9047 29.4715 49.3998C29.8422 50.688 30.5851 51.6289 30.5851 51.6289C30.5851 51.6289 30.4647 50.9383 30.5308 50.2195C32.3449 51.9512 32.6573 54.4782 32.8376 56.4203C33.346 61.7592 24.367 66.0046 22.6269 69.3443C21.3079 71.3223 20.5177 74.4517 22.7513 76.2967C28.1501 80.7526 26.0764 81.9789 28.779 83.9374C32.4866 86.6233 37.1252 85.4203 38.7039 83.2358C40.902 80.1918 40.3378 77.3205 39.5208 74.6347C38.8826 72.5346 37.148 69.0455 35.0026 67.6956C32.81 66.3151 30.678 66.057 28.8718 66.2416L29.0387 66.0507C31.6366 65.5377 34.3526 65.8192 36.3177 67.0785C38.5489 68.5035 40.5896 70.9477 41.6568 74.6941C42.8672 74.5228 43.038 74.4454 44.1461 74.289L41.6513 54.989L46.9321 54.4063ZM48.3739 78.5978L48.0866 75.9213L53.6972 67.4163L60.0665 69.2653L65.5433 60.1745L72.1085 64.4786L77.0965 54.0825L78.8697 73.0157L48.3739 78.5978ZM78.9358 50.2054L58.8891 53.8166C58.3925 54.4524 57.1648 55.5693 56.5745 55.8603C54.0427 57.1273 52.3318 56.7605 50.853 56.3788C49.9023 56.1395 49.3514 56.005 48.562 55.6522L43.6692 56.3194L46.6393 80.9465L80.9804 74.7942L78.9358 50.2054Z" fill="white"/>
</g>
<defs>
<clipPath id="clip0_138_26984">
<rect width="63" height="71" fill="white" transform="translate(18 14.5)"/>
</clipPath>
</defs>
</svg>
