<svg width="100" height="100" viewBox="0 0 100 100" fill="none" xmlns="http://www.w3.org/2000/svg">
<path fill-rule="evenodd" clip-rule="evenodd" d="M50 100C77.6142 100 100 77.6142 100 50C100 22.3858 77.6142 0 50 0C22.3858 0 0 22.3858 0 50C0 77.6142 22.3858 100 50 100Z" fill="#333333"/>
<path fill-rule="evenodd" clip-rule="evenodd" d="M50 99C77.062 99 99 77.062 99 50C99 22.938 77.062 1 50 1C22.938 1 1 22.938 1 50C1 77.062 22.938 99 50 99ZM50 100C77.6142 100 100 77.6142 100 50C100 22.3858 77.6142 0 50 0C22.3858 0 0 22.3858 0 50C0 77.6142 22.3858 100 50 100Z" fill="white" fill-opacity="0.08"/>
<path d="M86.9445 51.966C86.8053 52.9568 86.5555 53.9184 86.194 54.8507C85.6064 56.3352 84.7711 57.6652 83.6886 58.8404C82.6371 59.9847 81.3692 60.8973 79.8847 61.5777C78.431 62.2272 76.8226 62.5522 75.0596 62.5522C73.3277 62.5522 71.7196 62.2271 70.235 61.5777C68.7814 60.8973 67.5131 59.9848 66.4306 58.8404C65.3791 57.6652 64.5594 56.3352 63.9718 54.8507C63.6103 53.9184 63.3605 52.9568 63.2214 51.966H66.438C66.6149 53.0539 66.9518 54.0775 67.4512 55.0364C68.2554 56.49 69.3224 57.6499 70.6523 58.5159C71.9822 59.3509 73.4514 59.7684 75.0596 59.7684C76.6679 59.7684 78.1371 59.3353 79.467 58.4693C80.7969 57.6034 81.8639 56.4282 82.668 54.9438C83.1692 53.9993 83.5142 53.0066 83.7031 51.966H86.9445ZM75.1062 37.5C76.8381 37.5 78.431 37.8402 79.8847 38.5206C81.3382 39.1701 82.6062 40.0826 83.6886 41.2579C84.7711 42.4022 85.6064 43.7321 86.194 45.2476C86.6107 46.3002 86.8788 47.415 87.0001 48.592H83.7834C83.6238 47.3491 83.2527 46.1878 82.668 45.1084C81.8639 43.6238 80.7969 42.4484 79.467 41.5824C78.1371 40.7164 76.6679 40.2834 75.0596 40.2834C73.4514 40.2834 71.9822 40.732 70.6523 41.629C69.3533 42.5259 68.3019 43.7166 67.4978 45.2011C66.9247 46.237 66.557 47.3675 66.3923 48.592H63.1658C63.287 47.415 63.5552 46.3002 63.9718 45.2476C64.5594 43.7321 65.3947 42.4022 66.4772 41.2579C67.5597 40.0826 68.8276 39.1701 70.2812 38.5206C71.7657 37.8402 73.3742 37.5 75.1062 37.5Z" fill="white"/>
<path d="M40.3838 59.9535L56.5748 40.283H40.7549V37.917H60.147V40.0511L44.0488 59.7215H60.1006V62.0875H40.3838V59.9535Z" fill="white"/>
<path d="M25.1085 62.552C23.3765 62.552 21.7682 62.2273 20.2836 61.5778C18.7991 60.8973 17.5155 59.985 16.4331 58.8406C15.3506 57.6653 14.5 56.3199 13.8815 54.8044C13.2938 53.2889 13 51.6652 13 49.9332C13 47.6754 13.5103 45.6032 14.531 43.7166C15.5825 41.83 17.0207 40.3299 18.8455 39.2165C20.6702 38.0722 22.7424 37.5 25.0621 37.5C27.4436 37.5 29.5158 38.0722 31.2787 39.2165C33.0725 40.3609 34.4798 41.8764 35.5004 43.763C36.5211 45.6187 37.0314 47.66 37.0314 49.8868C37.0314 50.1343 37.0314 50.3817 37.0314 50.6291C37.0314 50.8456 37.0159 51.0157 36.985 51.1394H16.2939C16.4485 52.8714 16.9279 54.4178 17.732 55.7787C18.5671 57.1086 19.6341 58.1756 20.9331 58.9798C22.2631 59.753 23.7012 60.1396 25.2476 60.1396C26.825 60.1396 28.3096 59.7375 29.7013 58.9334C31.124 58.1292 32.1138 57.0777 32.6705 55.7787L35.4076 56.521C34.9128 57.6653 34.155 58.7014 33.1344 59.6293C32.1138 60.5571 30.9075 61.2839 29.5158 61.8097C28.1549 62.3046 26.6858 62.552 25.1085 62.552ZM16.2011 48.8662H34.0622C33.9385 47.1033 33.4591 45.5568 32.6241 44.2269C31.8199 42.897 30.7529 41.8609 29.423 41.1186C28.124 40.3454 26.6858 39.9588 25.1085 39.9588C23.5311 39.9588 22.093 40.3454 20.794 41.1186C19.495 41.8609 18.4279 42.9125 17.5929 44.2733C16.7887 45.6032 16.3248 47.1342 16.2011 48.8662Z" fill="white"/>
</svg>
