<svg width="100" height="100" viewBox="0 0 100 100" fill="none" xmlns="http://www.w3.org/2000/svg">
<path fill-rule="evenodd" clip-rule="evenodd" d="M50 100C77.6142 100 100 77.6142 100 50C100 22.3858 77.6142 0 50 0C22.3858 0 0 22.3858 0 50C0 77.6142 22.3858 100 50 100Z" fill="#FF5500"/>
<path d="M72.9163 42.9026L67.4524 37.4386C67.4524 37.4386 67.3565 37.3427 67.2607 37.4386C67.1648 37.4386 67.1648 37.5345 67.1648 37.5345V76.1657C67.1648 76.2616 67.1648 76.2616 67.2607 76.2616C67.2607 76.2616 67.2607 76.2616 67.3565 76.2616H67.4524L72.9163 70.7976C73.1081 70.6059 73.2998 70.1266 73.2998 69.839V43.8612C73.2998 43.5736 73.1081 43.0943 72.9163 42.9026Z" fill="white"/>
<path d="M63.0431 34.1795H43.5836C43.3919 34.1795 43.2961 34.0836 43.2961 33.8919V17.5959C43.2961 17.5 43.2961 17.5 43.2002 17.5C43.1043 17.5 43.1043 17.5 43.0085 17.5L37.5445 22.964C37.3528 23.1557 37.1611 23.635 37.1611 23.9226V40.1228C37.1611 40.2186 37.2569 40.3145 37.3528 40.3145H56.7164C56.9081 40.3145 57.0039 40.4103 57.0039 40.6021V43.4778C57.0039 43.8613 56.6205 44.2447 56.2371 44.2447H37.2569H37.1611V44.3406V65.0462C37.1611 67.4426 39.0783 69.3598 41.4747 69.3598H56.3329C56.7164 69.3598 57.0998 69.7433 57.0998 70.1267V73.0025C57.0998 73.1942 57.0039 73.2901 56.8122 73.2901H41.3789C36.7776 73.2901 33.135 69.5515 33.135 65.0462V27.6611C33.135 27.5652 33.135 27.5652 33.0391 27.5652C32.9433 27.5652 32.9433 27.5652 32.8474 27.5652L27.3834 33.0292C27.1917 33.2209 27 33.7002 27 33.9878V66.8675C27 73.8652 32.6557 79.5209 39.6534 79.5209H63.0431C63.1389 79.5209 63.2348 79.425 63.2348 79.3292V34.2754C63.2348 34.1795 63.1389 34.1795 63.0431 34.1795ZM57.0039 62.458C57.0039 62.8414 56.6205 63.2248 56.2371 63.2248H44.0629C43.6795 63.2248 43.2961 62.8414 43.2961 62.458V51.1466C43.2961 50.7631 43.6795 50.3797 44.0629 50.3797H56.3329C56.7164 50.3797 57.0998 50.7631 57.0998 51.1466V62.458H57.0039Z" fill="white"/>
</svg>
