<svg width="100" height="100" viewBox="0 0 100 100" fill="none" xmlns="http://www.w3.org/2000/svg">
<path fill-rule="evenodd" clip-rule="evenodd" d="M50 100C77.6142 100 100 77.6142 100 50C100 22.3858 77.6142 0 50 0C22.3858 0 0 22.3858 0 50C0 77.6142 22.3858 100 50 100Z" fill="#271A0F"/>
<path fill-rule="evenodd" clip-rule="evenodd" d="M50 99C77.062 99 99 77.062 99 50C99 22.938 77.062 1 50 1C22.938 1 1 22.938 1 50C1 77.062 22.938 99 50 99ZM50 100C77.6142 100 100 77.6142 100 50C100 22.3858 77.6142 0 50 0C22.3858 0 0 22.3858 0 50C0 77.6142 22.3858 100 50 100Z" fill="#242B2E" fill-opacity="0.16"/>
<path d="M49 50.4854C49 50.4854 36 35.9845 34 34.4854C32 32.9864 28 32.9839 24.5 35.9846V36.4846L37.5 50.4854L25 64.4844V64.9854C28.5 68.9844 33 66.9854 34 66.4854C35 65.9854 49 50.4854 49 50.4854Z" fill="#E06520"/>
<path d="M53 50.5146C53 50.5146 66 65.0155 68 66.5146C70 68.0136 74 68.0161 77.5 65.0154V64.5154L64.5 50.5146L77 36.5156V36.0146C73.5 32.0156 69 34.0146 68 34.5146C67 35.0146 53 50.5146 53 50.5146Z" fill="#E06520"/>
<path d="M68 31.0251L51 49.5251L34 31.0251C36 27.5249 39.5 28.5249 41.5 29.0251C43.5 29.5254 51 38.0251 51 38.0251C51 38.0251 58 29.5255 60 29.0251C62 28.5248 66 27.5255 68 31.0251Z" fill="white"/>
<path d="M68 70.5256L51 52.0256L34 70.5256C36 74.0259 39.5 73.0259 41.5 72.5256C43.5 72.0254 51 63.5256 51 63.5256C51 63.5256 58 72.0253 60 72.5256C62 73.026 66 74.0253 68 70.5256Z" fill="white"/>
</svg>
