<svg width="100" height="100" viewBox="0 0 100 100" fill="none" xmlns="http://www.w3.org/2000/svg">
<path fill-rule="evenodd" clip-rule="evenodd" d="M50 100C77.6142 100 100 77.6142 100 50C100 22.3858 77.6142 0 50 0C22.3858 0 0 22.3858 0 50C0 77.6142 22.3858 100 50 100Z" fill="white"/>
<path fill-rule="evenodd" clip-rule="evenodd" d="M50 99C77.062 99 99 77.062 99 50C99 22.938 77.062 1 50 1C22.938 1 1 22.938 1 50C1 77.062 22.938 99 50 99ZM50 100C77.6142 100 100 77.6142 100 50C100 22.3858 77.6142 0 50 0C22.3858 0 0 22.3858 0 50C0 77.6142 22.3858 100 50 100Z" fill="#242B2E" fill-opacity="0.16"/>
<path d="M36.3568 44.9274C36.717 44.9037 38.0963 44.989 38.1771 45.4652C38.1412 45.7765 37.2874 47.8262 37.1024 47.7988C36.2544 47.6732 35.6287 47.3723 34.7393 47.9069C34.191 48.2365 33.5309 48.7574 33.1017 49.3074C33.0725 50.0989 33.0902 50.9773 33.0902 51.7739L33.0908 55.9948C33.0913 56.4657 33.1364 58.5611 33.0209 58.8971C32.911 58.9722 32.7502 58.979 32.6209 58.9854C32.2507 59.0039 30.2093 59.0513 30.0374 58.8832C29.8745 58.7239 29.9425 58.2561 29.9478 58.0346L29.9493 52.2677C29.9493 50.8384 30.0135 49.2835 29.7647 47.8835C29.6485 47.2297 29.4306 46.8935 29.1412 46.3162C29.0734 46.181 29.0345 46.074 29.0859 45.9347C29.4666 45.6024 30.7999 45.1567 31.3055 44.9674C31.9756 44.7164 32.5504 46.7022 32.6496 47.165C33.829 45.9548 34.571 45.0539 36.3568 44.9274Z" fill="#232021"/>
<path d="M86.9777 40.6621L87.0493 40.6832C87.1186 40.8012 87.0767 41.4333 87.0725 41.5945C87.0276 43.312 86.4982 45.247 85.5716 46.6982C84.3083 46.2534 82.3975 45.583 81.4248 44.6408C80.4517 43.8691 79.8541 42.7292 79.3655 41.6236C81.5988 42.1179 83.47 41.8021 85.6401 41.1251C86.0659 40.9923 86.571 40.8313 86.9777 40.6621Z" fill="#FA9D2B"/>
<path d="M81.8968 33.5977C81.9128 33.6106 81.9318 33.6259 81.9539 33.6436C81.9253 33.8529 81.8381 34.2135 81.8038 34.405C81.7052 34.9557 81.6218 35.5129 81.5928 36.0663C81.4915 37.9919 81.9916 39.4458 82.831 41.1398C81.5372 41.4724 79.9658 41.3251 78.7189 40.8622C78.1529 40.6381 77.4575 40.2754 76.9094 39.9984C77.1071 39.3664 77.3893 38.7491 77.6548 38.148C78.5867 36.0364 79.9144 34.7396 81.8968 33.5977Z" fill="#FA9D2B"/>
<path d="M22.8958 45.7794C22.889 44.904 22.7899 39.7745 22.9728 39.3445C23.2214 39.1167 25.7219 38.661 25.9801 38.8079C26.1129 39.137 26.0531 42.6563 26.0531 43.3562L26.0522 51.5969C26.0522 53.029 26.0471 54.4648 26.0582 55.8937C26.0641 56.6646 26.2916 57.334 26.7376 57.9483C26.8057 58.042 26.852 58.1445 26.8324 58.2596C26.5303 58.5393 24.7683 59.2439 24.2995 59.2879C23.8955 59.3257 23.5056 58.1194 23.4161 57.7669C22.4246 58.4709 21.4019 59.0446 20.2035 59.2957C20.0914 59.3192 19.929 59.3549 19.8211 59.3896H18.2734C17.5501 59.2171 17.0153 59.0646 16.3876 58.6198C15.1441 57.7388 14.4986 56.2314 14.2147 54.7751C14.1202 54.2905 14.0858 53.7239 14 53.2187V51.4469C14.0908 50.9328 14.1169 50.4034 14.2152 49.8793C14.5186 48.2605 15.2503 46.8 16.6218 45.8341C17.8613 44.961 19.3693 44.7728 20.8349 45.023C21.4527 45.1284 22.345 45.4704 22.8958 45.7794ZM20.3511 57.03C21.1476 56.9593 22.3711 56.3684 22.8985 55.7566C22.8485 53.2194 22.8904 50.5255 22.8882 47.9778C21.9515 47.5185 20.9786 47.198 19.917 47.2943C17.9571 47.5028 17.5221 48.7544 17.3226 50.5502C17.1948 51.7 17.2489 52.892 17.3484 54.0421C17.5567 55.8586 18.2041 57.2737 20.2736 57.0408C20.2995 57.0378 20.3253 57.0342 20.3511 57.03Z" fill="#232021"/>
<path d="M75.6537 50.4701C75.637 49.7186 75.744 48.3123 75.111 47.795C73.9741 46.8662 71.831 47.3701 70.5532 47.7742C70.3209 47.8182 69.3189 48.3007 69.1947 48.0828C68.9171 47.5958 68.6543 46.8594 68.5362 46.3139C68.4562 45.9444 69.2298 45.7145 69.4971 45.6228C71.0792 45.0822 72.7527 44.8616 74.4205 44.9737C75.6427 45.0507 76.9631 45.3568 77.8105 46.3106C78.8084 47.434 78.7147 48.967 78.7143 50.3645L78.7124 53.6349C78.7124 54.3527 78.6949 55.3049 78.7806 56.0066C78.8217 56.348 78.8994 56.684 79.0121 57.0087C79.1024 57.2668 79.6996 58.2538 79.4372 58.3829C78.725 58.7335 77.9221 59.1146 77.1779 59.3902H77.1497C76.5701 59.0908 76.3255 58.2706 76.1134 57.6685C74.6966 58.9105 73.4051 59.4287 71.4993 59.3113C68.9681 59.1554 67.3217 57.4006 67.5528 54.8346C67.915 50.8134 72.5634 50.542 75.6537 50.4701ZM71.5858 56.8761C72.985 57.606 74.6083 56.8482 75.6545 55.8365C75.6274 54.8526 75.616 53.5073 75.6465 52.5261L75.1117 52.5302C73.3449 52.6311 70.471 52.815 70.6344 55.2737C70.6664 55.8266 70.9223 56.3424 71.3435 56.7007C71.4155 56.7629 71.5058 56.8237 71.5858 56.8761Z" fill="#232021"/>
<path d="M48.2007 55.8098L48.1976 49.0284L48.1979 46.816C48.1978 46.5219 48.167 46.2129 48.1874 45.9214C48.1956 45.8038 48.2321 45.6915 48.3155 45.606C48.4674 45.45 50.7478 44.9682 51.0673 44.9707C51.1039 44.971 51.2088 44.9696 51.2348 44.9953C51.4354 45.1939 51.3503 47.2668 51.3501 47.6269L51.3459 53.0446C51.3453 54.345 51.2193 56.2136 51.6597 57.4647C51.9401 58.2614 52.6964 58.4474 51.347 58.8318C50.8356 58.9895 50.1951 59.2171 49.6583 59.3904H49.6315C49.5841 59.3665 49.5375 59.341 49.4917 59.3142C49.0222 59.0371 48.7797 58.2624 48.6519 57.7618C48.0091 58.3166 47.0359 58.8886 46.2238 59.133C45.8882 59.2341 45.5471 59.2928 45.2093 59.3904H43.3038C42.8215 59.2928 42.4144 59.2182 41.9548 59.036C39.5414 58.0793 39.7812 55.4187 39.7814 53.3142L39.7828 49.178L39.7801 46.9915C39.7796 46.601 39.7357 46.1487 39.8137 45.7682C39.8316 45.6807 39.8402 45.631 39.9182 45.5818C40.1668 45.4251 42.4812 44.926 42.7621 44.9976C42.8174 45.0117 42.8435 45.0412 42.8858 45.0776C43.0024 45.3472 42.9597 46.4699 42.9585 46.8301L42.9524 51.796C42.9522 53.0049 42.8499 54.7225 43.1479 55.8639C43.7043 57.9947 47.095 56.7963 48.2007 55.8098Z" fill="#232021"/>
<path d="M58.8439 59.3902C58.7232 59.2805 58.6638 59.1935 58.6021 59.043C58.2018 58.0667 57.8179 57.0762 57.4309 56.0949L55.2802 50.6574L54.0493 47.5531C53.8486 47.0466 53.4765 46.181 53.3611 45.6734C53.5313 45.4225 56.058 45.0813 56.4765 45.1931C56.5302 45.2075 56.6708 45.4891 56.694 45.5559C57.6404 48.2678 58.5796 50.9865 59.4948 53.7092C59.7572 54.4907 59.9027 55.3198 60.1503 56.0926C60.3731 54.7565 60.8613 53.4435 61.3374 52.1824C61.7427 51.1094 62.1441 50.035 62.5474 48.9614L63.3842 46.7232C63.6298 46.063 63.8138 44.9157 64.5938 45.1713C65.0866 45.3328 65.7306 45.3183 66.2387 45.4508C66.3994 45.4786 66.8553 45.589 66.8477 45.6907C66.8222 46.0411 66.2242 47.3985 66.1073 47.6826L64.705 51.0891L62.5185 56.4148C62.1422 57.3304 61.7724 58.2488 61.3805 59.1577C61.3317 59.2706 61.2133 59.3446 61.1036 59.3902H58.8439Z" fill="#232021"/>
<path d="M83.6764 31.5H83.8329C86.8664 32.5856 88.7262 33.5636 89.9602 36.7238C87.4095 36.0039 84.6792 36.3158 82.3555 37.5926C82.1644 35.1472 82.3864 33.591 83.6764 31.5Z" fill="#FA9D2B"/>
<path d="M86.3218 36.8293C88.5483 36.7819 90.085 37.2773 92 38.358V38.4817C91.965 38.5681 91.92 38.7061 91.8877 38.7987C90.9888 41.3934 89.807 43.1047 87.2922 44.2993C87.3036 44.2587 87.3143 44.2179 87.3246 44.177C87.4716 43.5807 87.5539 42.9479 87.6342 42.3445C87.9484 39.9879 87.5002 38.7817 86.3218 36.8293Z" fill="#FA9D2B"/>
</svg>
