<svg width="100" height="100" viewBox="0 0 100 100" fill="none" xmlns="http://www.w3.org/2000/svg">
<path fill-rule="evenodd" clip-rule="evenodd" d="M50 100C77.6142 100 100 77.6142 100 50C100 22.3858 77.6142 0 50 0C22.3858 0 0 22.3858 0 50C0 77.6142 22.3858 100 50 100Z" fill="white"/>
<path fill-rule="evenodd" clip-rule="evenodd" d="M50 99C77.062 99 99 77.062 99 50C99 22.938 77.062 1 50 1C22.938 1 1 22.938 1 50C1 77.062 22.938 99 50 99ZM50 100C77.6142 100 100 77.6142 100 50C100 22.3858 77.6142 0 50 0C22.3858 0 0 22.3858 0 50C0 77.6142 22.3858 100 50 100Z" fill="#242B2E" fill-opacity="0.16"/>
<path d="M15 63.5639V38.002H23.3808C24.4052 38.002 25.3151 38.0339 26.1103 38.0978C26.823 38.1494 27.5301 38.2587 28.2252 38.4244C28.7964 38.5619 29.3507 38.7615 29.8783 39.0196C30.3719 39.2671 30.836 39.5691 31.2619 39.9199C32.2333 40.7095 32.9983 41.7218 33.4919 42.8703C34.0112 44.0813 34.2731 45.3865 34.2609 46.7035C34.2663 47.9785 34.0178 49.2419 33.5298 50.4205C33.0929 51.5181 32.4243 52.5092 31.5693 53.3265C30.7111 54.1369 29.6692 54.7285 28.5324 55.0513C27.3789 55.3834 25.8923 55.5493 24.0726 55.5493H21.2659V63.5585L15 63.5639ZM21.2659 49.8064H23.9183C26.6351 49.8064 27.9935 48.8036 27.9935 46.7979C27.9935 45.7182 27.6542 44.9403 26.9755 44.4643C26.2966 43.9883 25.1883 43.7503 23.6501 43.7503H21.2659V49.8064Z" fill="#231F20"/>
<path d="M34.2815 63.5639V38.002H42.8925C43.8673 38.002 44.7325 38.0339 45.488 38.0978C46.1859 38.1535 46.8794 38.2559 47.5635 38.4042C48.1702 38.5383 48.7624 38.7308 49.3317 38.9791C49.8958 39.2287 50.4418 39.5169 50.9659 39.8416C52.1934 40.605 53.2529 41.6087 54.0799 42.792C55.6433 44.965 56.4249 47.597 56.4249 50.6878C56.4249 52.6296 56.1366 54.3922 55.5599 55.9758C55.032 57.4807 54.2028 58.8629 53.1228 60.0384C52.0567 61.1702 50.7567 62.0578 49.3128 62.6394C47.7367 63.2711 46.0507 63.5854 44.352 63.5639H34.2815ZM40.8169 57.8156H43.6236C45.6734 57.8156 47.2305 57.2216 48.2946 56.0339C49.3588 54.8462 49.8905 53.1281 49.8895 50.8794C49.8895 48.5795 49.3512 46.8164 48.2743 45.59C47.1975 44.3635 45.6599 43.7503 43.6615 43.7503H40.8183L40.8169 57.8156Z" fill="#231F20"/>
<path d="M83.4626 58.8879C83.5397 58.8884 83.6167 58.8821 83.6927 58.8691C83.7946 58.855 83.8973 58.8486 84.0001 58.8501V64.0235L83.097 64.0815C82.9048 64.0937 82.6678 64.1005 82.3862 64.1005C81.1856 64.116 79.9907 63.9335 78.8497 63.5606C77.7982 63.2007 76.9778 62.7027 76.3883 62.0665C74.184 63.3963 71.8649 64.0605 69.4304 64.0586C67.5683 64.0754 65.7205 63.7306 63.9904 63.0436C62.3665 62.4023 60.8792 61.4599 59.6077 60.266C58.3397 59.0599 57.3327 57.6082 56.6484 56C55.9641 54.3916 55.617 52.6609 55.6285 50.9139C55.6117 49.1478 55.9482 47.396 56.6185 45.7611C57.2887 44.1261 58.2792 42.6408 59.532 41.3919C60.7848 40.143 62.2748 39.1556 63.9149 38.4875C65.555 37.8193 67.3122 37.4838 69.0838 37.5006C70.9355 37.4865 72.7716 37.8383 74.486 38.5358C76.1148 39.1934 77.6024 40.1555 78.8687 41.3702C80.1184 42.5822 81.1118 44.0315 81.7904 45.6325C82.5024 47.3045 82.8623 49.1044 82.8479 50.9207C82.8584 52.1545 82.6831 53.3828 82.328 54.5648C81.9398 55.7766 81.3766 56.9256 80.6559 57.9755C81.322 58.5838 82.2576 58.8879 83.4626 58.8879ZM71.8906 50.9936C72.2751 51.2742 72.6082 51.5235 72.8897 51.7412C73.1714 51.959 73.4471 52.1889 73.717 52.431C73.9988 52.6866 74.262 52.9617 74.505 53.2543C74.7609 53.5607 75.0682 53.9197 75.427 54.3273C75.6996 53.665 75.9311 52.9867 76.1202 52.2959C76.2555 51.7183 76.3201 51.1265 76.3125 50.5333C76.3209 49.5368 76.137 48.5479 75.771 47.6206C75.4312 46.7566 74.9221 45.9688 74.2735 45.3032C73.6241 44.6461 72.8449 44.1304 71.9853 43.7888C71.062 43.4227 70.076 43.2393 69.0824 43.249C67.289 43.249 65.7771 43.8239 64.5468 44.9739C63.3166 46.1238 62.5349 47.6953 62.2018 49.6883C62.8204 49.4061 63.4635 49.1802 64.1231 49.0135C64.6918 48.8929 65.272 48.8349 65.8533 48.8408C67.8284 48.8453 69.8407 49.5629 71.8906 50.9936ZM69.0067 58.3196C69.4629 58.3322 69.918 58.2675 70.3525 58.128C70.8434 57.9296 71.3086 57.6727 71.7376 57.3628C71.2115 56.6681 70.6188 56.0262 69.9679 55.4462C69.3882 54.9602 68.7411 54.5603 68.0467 54.2584C67.1483 53.8236 66.1616 53.6007 65.1628 53.6066C64.7824 53.6019 64.4025 53.634 64.0282 53.7024C63.6313 53.7874 63.2398 53.896 62.8558 54.0277C63.3623 55.2913 64.2318 56.3777 65.3551 57.1508C66.4203 57.9106 67.6971 58.3191 69.0067 58.3196Z" fill="#231F20"/>
</svg>
