<svg width="100" height="100" viewBox="0 0 100 100" fill="none" xmlns="http://www.w3.org/2000/svg">
<path fill-rule="evenodd" clip-rule="evenodd" d="M50 100C77.6142 100 100 77.6142 100 50C100 22.3858 77.6142 0 50 0C22.3858 0 0 22.3858 0 50C0 77.6142 22.3858 100 50 100Z" fill="#F8FAFA" fill-opacity="0.08"/>
<path fill-rule="evenodd" clip-rule="evenodd" d="M50 99C77.062 99 99 77.062 99 50C99 22.938 77.062 1 50 1C22.938 1 1 22.938 1 50C1 77.062 22.938 99 50 99ZM50 100C77.6142 100 100 77.6142 100 50C100 22.3858 77.6142 0 50 0C22.3858 0 0 22.3858 0 50C0 77.6142 22.3858 100 50 100Z" fill="#242B2E" fill-opacity="0.16"/>
<path d="M63.937 25.5006C64.1099 25.5003 64.1099 25.5003 64.2862 25.5C64.6574 25.4997 65.0286 25.5005 65.3999 25.5017C65.5259 25.5019 65.652 25.5022 65.7818 25.5024C68.6871 25.5094 68.6871 25.5094 70.061 25.5609C70.2214 25.5655 70.2214 25.5655 70.3852 25.5701C71.1932 25.6094 72.1831 25.7115 72.8225 26.2525C73.3958 26.9294 73.4422 27.5349 73.4343 28.3914C73.3767 28.9664 73.208 29.2616 72.8626 29.7196C72.3623 30.0876 71.7909 30.0286 71.1992 30.0277C70.9637 30.03 70.7283 30.0325 70.4929 30.035C70.3683 30.0359 70.2437 30.0369 70.1154 30.0379C65.9299 30.0766 61.6636 30.2715 57.5795 31.2671C57.2746 31.3407 56.9693 31.4073 56.6624 31.4713C52.5164 32.3573 48.2419 34.1127 44.9794 36.902C44.862 37.0023 44.7445 37.1025 44.6235 37.2059C43.2401 38.4303 42.1368 39.7433 41.2439 41.3741C41.12 41.5981 41.12 41.5981 40.9937 41.8267C40.3657 43.0269 39.9492 44.2542 39.6429 45.5751C39.6179 45.68 39.5929 45.7849 39.5671 45.8929C39.3404 46.9711 39.3309 48.0463 39.334 49.1435C39.3344 49.4598 39.3313 49.776 39.3279 50.0924C39.3222 51.4797 39.4749 52.7585 39.7763 54.1126C39.8061 54.2485 39.8358 54.3843 39.8664 54.5242C40.7076 58.1845 43.0994 61.1378 46.1666 63.1277C48.3279 64.4874 50.6574 65.4773 53.0888 66.2181C53.3407 66.2957 53.5906 66.3801 53.8399 66.4658C54.3676 66.6168 54.6792 66.6712 55.1745 66.4103C55.539 66.1283 55.8587 65.8217 56.1861 65.496C56.3846 65.3154 56.5831 65.1348 56.7819 64.9545C58.4292 63.4433 61.0287 61.8594 62.3892 60.0754C62.4786 59.9681 62.568 59.8609 62.6602 59.7503C64.5058 57.5223 65.6918 54.7687 65.4952 51.8268C65.3751 50.9021 64.8659 50.1753 64.1736 49.5898C60.9103 47.4113 55.6735 47.9897 52.0503 48.692C51.5896 48.801 51.1304 48.9137 50.6723 49.0332C50.3159 49.0985 50.3159 49.0985 49.9157 48.963C55.7255 45.4495 63.2117 42.3913 70.0933 43.9526C72.1777 44.5006 74.0541 45.3343 75.2015 47.2759C76.1659 49.1525 76.0791 50.9147 75.4819 52.8993C74.1437 57.0957 70.8059 60.4881 67.3927 63.0567C67.2679 63.1589 67.143 63.2611 67.0144 63.3664C65.3648 64.7118 63.5456 65.8513 61.7557 66.9924C61.6213 67.078 61.4869 67.1637 61.3485 67.2519C61.2278 67.3282 61.1071 67.4045 60.9827 67.4832C60.8967 67.5429 60.8107 67.6027 60.7221 67.6643C60.7221 67.709 60.7221 67.7538 60.7221 67.7998C61.0333 67.8431 61.3446 67.8853 61.656 67.9269C61.916 67.9622 61.916 67.9623 62.1813 67.9983C63.6123 68.1645 65.046 68.2144 66.4849 68.235C66.6145 68.2369 66.744 68.2389 66.8775 68.2409C67.4139 68.2486 67.9503 68.2561 68.4867 68.2608C68.884 68.2645 69.2812 68.2707 69.6785 68.2773C69.799 68.2778 69.9194 68.2782 70.0436 68.2786C70.8882 68.2954 71.4646 68.4432 72.108 69.0369C72.4153 69.5781 72.4075 70.0232 72.3957 70.6372C72.3978 70.7437 72.3998 70.8502 72.402 70.9599C72.3972 71.6825 72.2735 72.1119 71.7953 72.6784C70.1409 73.5646 68.0613 73.3778 66.2431 73.3788C66.047 73.3792 65.851 73.3797 65.6549 73.3801C65.2462 73.381 64.8374 73.3812 64.4286 73.3811C64.0168 73.3811 63.6049 73.3821 63.1931 73.3839C60.861 73.3943 58.5526 73.3642 56.23 73.1179C55.8144 73.0739 55.3984 73.0365 54.9822 72.9992C54.6222 72.9658 54.2623 72.932 53.9024 72.8971C53.5521 72.8648 53.2017 72.8393 52.8508 72.814C52.7463 72.8014 52.6419 72.7889 52.5343 72.776C51.5265 72.6999 50.7318 73.1123 49.8473 73.551C49.3664 73.789 48.881 74.0175 48.396 74.2469C48.2933 74.2957 48.1906 74.3445 48.0847 74.3948C46.8508 74.9772 45.5954 75.5064 44.3374 76.0325C44.221 76.0812 44.1045 76.1299 43.9846 76.1802C40.8741 77.4805 37.7509 78.7382 34.5732 79.8608C34.4342 79.91 34.2951 79.9591 34.1518 80.0097C29.8101 81.5338 29.8101 81.5338 28.3029 81.487C28.2588 81.3081 28.2148 81.1293 28.1694 80.945C28.655 80.6275 29.124 80.4179 29.6703 80.2298C29.8349 80.1722 29.9994 80.1147 30.169 80.0554C30.2997 80.01 30.2997 80.0101 30.433 79.9638C33.667 78.8374 36.7984 77.4821 39.8886 75.9974C40.3085 75.796 40.7295 75.5971 41.1506 75.3983C43.1484 74.4477 45.0702 73.391 46.9806 72.2719C46.9806 72.1824 46.9806 72.093 46.9806 72.0008C46.8694 71.9778 46.7583 71.9547 46.6438 71.931C42.3904 71.04 38.2932 69.8799 34.4398 67.7998C34.3418 67.7478 34.2437 67.6957 34.1427 67.6421C32.2024 66.608 30.5647 65.4018 28.9699 63.8698C28.7808 63.6932 28.7808 63.6932 28.5879 63.5131C26.846 61.8492 25.587 59.8207 24.5673 57.6361C24.5285 57.5534 24.4897 57.4708 24.4497 57.3856C24.1833 56.8044 23.9624 56.2122 23.7668 55.6033C23.7345 55.5036 23.7021 55.4038 23.6687 55.301C22.7468 52.311 22.6836 48.4685 23.5 45.4396C23.5398 45.2915 23.5398 45.2915 23.5803 45.1404C24.3891 42.2462 25.8465 39.4795 27.9026 37.3086C28.0563 37.1258 28.2093 36.9423 28.3612 36.758C31.4413 33.2046 36.0141 31.1048 40.2933 29.474C40.3834 29.4396 40.4735 29.4052 40.5663 29.3697C42.5004 28.658 44.5025 28.1601 46.5053 27.6953C46.631 27.6661 46.7567 27.6369 46.8861 27.6068C51.6071 26.5192 56.4809 25.8858 61.3183 25.6827C61.7826 25.6625 61.7826 25.6625 62.2099 25.5857C62.7904 25.5098 63.3526 25.4992 63.937 25.5006Z" fill="#00A7F5"/>
<path d="M74.8847 45.8119C76.0188 46.815 76.8505 48.1412 76.9936 49.6362C77.1258 52.9762 75.2047 56.204 72.9156 58.5955C71.4103 60.1365 69.8773 61.5746 68.1106 62.8336C67.9812 62.9339 67.8518 63.0342 67.7185 63.1375C66.2826 64.2466 64.7232 65.1954 63.1712 66.1458C62.8588 66.338 62.5499 66.5326 62.2422 66.7314C62.0854 66.8301 61.9285 66.9287 61.7716 67.0273C61.6329 67.1162 61.4941 67.2052 61.3512 67.2969C60.6874 67.5922 60.0474 67.5216 59.3491 67.3618C58.8578 67.2541 58.3659 67.1553 57.8715 67.0615C57.3051 66.951 56.7391 66.8392 56.1747 66.7192C56.0571 66.6944 55.9394 66.6697 55.8181 66.6442C55.5299 66.5571 55.5299 66.5571 55.2534 66.2912C55.5067 66.0666 55.7602 65.8422 56.0138 65.618C56.0837 65.556 56.1535 65.494 56.2255 65.4302C56.625 65.0772 57.029 64.731 57.44 64.3905C58.0942 63.8415 58.7098 63.258 59.3231 62.6674C59.4391 62.5557 59.5551 62.4441 59.6746 62.329C60.47 61.5563 61.2007 60.7707 61.8894 59.908C61.9817 59.8031 62.074 59.6982 62.1691 59.5901C64.0825 57.404 65.3118 54.7009 65.108 51.8137C64.9835 50.9063 64.4559 50.1931 63.7384 49.6185C60.3569 47.4808 55.9665 48.0484 52.212 48.7375C51.7346 48.8445 51.2588 48.9551 50.784 49.0724C50.4147 49.1365 50.4147 49.1365 50 49.0035C56.5 44.5 67.9946 40.5999 74.8847 45.8119Z" fill="#81D3F9"/>
<path d="M47.1011 72.3663C47.2639 72.3853 47.2639 72.3853 47.4299 72.4047C47.761 72.444 49.0915 72.4857 49.4221 72.5283C49.5217 72.5412 49.6213 72.554 49.7239 72.5672C50.2603 72.6371 50.7959 72.7108 51.3312 72.7877C51.1248 73.1801 50.5798 73.2479 50.1636 73.4286C50.0791 73.4654 49.9947 73.5022 49.9077 73.5401C49.6242 73.6632 49.34 73.7848 49.0556 73.9062C48.9572 73.9486 48.8587 73.9909 48.7572 74.0345C44.4998 75.9998 43.4998 76.4998 39.9998 77.9998C39.7866 78.0703 33.2175 80.4281 33 80.5C28.5622 81.9582 28.2824 81.5252 28.2374 81.3541C28.1924 81.1829 28.1474 81.0117 28.1011 80.8354C28.5974 80.5317 29.0768 80.331 29.6352 80.1511C29.8874 80.0685 29.8874 80.0685 30.1448 79.9842C30.2339 79.9553 30.3229 79.9264 30.4147 79.8966C33.7203 78.8189 35.9209 77.5218 39.0794 76.1014C39.5086 75.9087 39.9389 75.7183 40.3694 75.5281C47.5438 72.3332 46.7739 72.3246 47.1011 72.3663Z" fill="#81D3F9"/>
</svg>
