<svg width="100" height="100" viewBox="0 0 100 100" fill="none" xmlns="http://www.w3.org/2000/svg">
<g clip-path="url(#clip0_63_6290)">
<path d="M50 100C77.6142 100 100 77.6142 100 50C100 22.3858 77.6142 0 50 0C22.3858 0 0 22.3858 0 50C0 77.6142 22.3858 100 50 100Z" fill="#2960F5"/>
<path d="M18 28.5H35.6442C38.0912 28.5 40.5382 28.7601 42.9531 29.2479C45.1425 29.7031 47.2675 30.5485 49.135 31.7515C50.938 32.9221 52.3869 34.5479 53.385 36.4663C54.512 38.7423 55.0593 41.2785 54.9949 43.8472C54.9949 47.1963 54.4154 49.8951 53.2884 51.9436C52.2259 53.927 50.6161 55.5853 48.6842 56.6908C46.5914 57.8613 44.3375 58.6417 41.9871 58.9669C39.3469 59.3896 36.6745 59.5847 34.0022 59.5521H27.3373V81.5H18V28.5ZM32.9718 51.4883C34.2919 51.4883 35.6764 51.4233 37.1253 51.3258C38.4776 51.2282 39.8299 50.9356 41.0856 50.4153C42.2447 49.9601 43.275 49.1798 44.0478 48.1718C44.8849 46.9362 45.2713 45.473 45.2069 43.9773C45.2713 42.5791 44.9171 41.2135 44.1766 40.0429C43.5004 39.0675 42.5667 38.2871 41.5042 37.7994C40.3451 37.2466 39.1216 36.9215 37.8658 36.7914C36.578 36.6288 35.2901 36.5638 34.0022 36.5638H27.3373V51.4558L32.9718 51.4883Z" fill="white"/>
<rect x="62" y="19.5" width="24" height="30" fill="white"/>
</g>
<defs>
<clipPath id="clip0_63_6290">
<rect width="100" height="100" fill="white"/>
</clipPath>
</defs>
</svg>
