<svg width="100" height="100" viewBox="0 0 100 100" fill="none" xmlns="http://www.w3.org/2000/svg">
<path fill-rule="evenodd" clip-rule="evenodd" d="M50 100C77.6142 100 100 77.6142 100 50C100 22.3858 77.6142 0 50 0C22.3858 0 0 22.3858 0 50C0 77.6142 22.3858 100 50 100Z" fill="#071B2A"/>
<path d="M72.7703 27.6728C68.8366 23.6782 63.9258 20.8393 58.552 19.4531L61.5884 35.3662C62.1475 35.8144 62.6838 36.2918 63.195 36.7964C64.9845 38.6568 66.388 40.8683 67.321 43.2978C68.2541 45.7273 68.6975 48.3248 68.6246 50.9341C68.6707 54.315 67.8921 57.6543 66.3594 60.6497C66.3594 60.732 66.279 60.732 66.279 60.8142C65.4377 62.4182 64.3834 63.8953 63.1463 65.2035C59.5198 68.8688 54.6279 70.9242 49.5306 70.9242C44.4333 70.9242 39.5413 68.8688 35.9148 65.2035C34.6883 63.8901 33.6401 62.4137 32.7987 60.814C32.7183 60.814 32.7183 60.6495 32.6379 60.5675C31.1908 57.5863 30.4583 54.2954 30.5011 50.967C30.429 48.3591 30.8712 45.7631 31.8014 43.3341C32.7317 40.905 34.1308 38.6927 35.9153 36.8293C36.4132 36.3197 36.9114 35.8265 37.4093 35.399L40.446 19.5517C35.141 20.9976 30.3134 23.8763 26.4688 27.8864C23.4007 30.8937 20.9757 34.5195 19.3469 38.5348C17.7182 42.55 16.9211 46.8672 17.0062 51.2137C16.9252 55.4895 17.7001 59.7371 19.2831 63.695C20.8662 67.653 23.2239 71.2377 26.2113 74.2286C29.2381 77.2883 32.8411 79.6865 36.8015 81.2775C40.7619 82.8685 44.997 83.6192 49.2497 83.4838C53.5553 83.5746 57.8349 82.7787 61.834 81.1436C65.8332 79.5085 69.4703 77.0674 72.5292 73.9655C75.5886 70.9826 78.0094 67.3822 79.6383 63.3922C81.2672 59.4022 82.0687 55.1096 81.992 50.7862C82.0881 46.5068 81.3185 42.2533 79.7316 38.2927C78.1446 34.3321 75.7746 30.75 72.7703 27.7713" fill="white"/>
<path d="M49.4906 31.0596C50.551 31.0544 51.5816 31.4183 52.4133 32.0915C53.245 32.7648 53.8282 33.7073 54.0674 34.7645C54.3065 35.8216 54.1873 36.9305 53.7293 37.9092C53.2714 38.8879 52.5018 39.6782 51.547 40.1503L53.4427 50.0139H45.41L47.3057 40.1503C46.5323 39.7725 45.8748 39.1851 45.4047 38.4518C44.9345 37.7186 44.6696 36.8676 44.6388 35.9912C44.6723 34.7062 45.1948 33.4853 46.0951 32.5887C46.9953 31.692 48.2022 31.1905 49.4585 31.191M61.797 57.0337L54.5039 18.5H44.4629L37.1367 56.9678L61.797 57.0337Z" fill="white"/>
</svg>
