<svg width="100" height="100" viewBox="0 0 100 100" fill="none" xmlns="http://www.w3.org/2000/svg">
<path fill-rule="evenodd" clip-rule="evenodd" d="M50 100C77.6142 100 100 77.6142 100 50C100 22.3858 77.6142 0 50 0C22.3858 0 0 22.3858 0 50C0 77.6142 22.3858 100 50 100Z" fill="white"/>
<path fill-rule="evenodd" clip-rule="evenodd" d="M50 99C77.062 99 99 77.062 99 50C99 22.938 77.062 1 50 1C22.938 1 1 22.938 1 50C1 77.062 22.938 99 50 99ZM50 100C77.6142 100 100 77.6142 100 50C100 22.3858 77.6142 0 50 0C22.3858 0 0 22.3858 0 50C0 77.6142 22.3858 100 50 100Z" fill="#242B2E" fill-opacity="0.16"/>
<path d="M23.0431 34.4008L31.9631 19.0047L67.8847 19L76.7563 34.549L76.7672 65.6533L67.8863 81.193L31.9756 81.2055L22.9526 65.6549L23.0431 34.4008Z" fill="#4D4D4D"/>
<path d="M22.9543 65.6479H39.1431L30.2513 49.9787L37.4827 34.4016L23.0448 34.3984L14 50.1051" fill="#EDEDED"/>
<path d="M44.0524 65.6504H55.8859L66.3491 50.3994L56.0684 34.5508H42.1486L33.7639 49.8657L44.0524 65.6504Z" fill="#E0E0E0"/>
<path d="M14 50.1055L22.9543 65.6545H39.1447L30.3496 50.1585L14 50.1055Z" fill="#ACACAC"/>
<path d="M33.9341 50.1074L44.0541 65.6533H55.8859L66.1854 50.1137L33.9341 50.1074Z" fill="#9E9E9E"/>
<path d="M37.9416 50.1159L34.8877 51.0054L31.957 50.1143L43.9215 29.375L46.9146 34.5528" fill="#00B8E3"/>
<path d="M46.902 65.6498L43.9246 70.8495L35.9768 62.2869L31.9507 50.1195V50.1133H37.94" fill="#33C6E9"/>
<path d="M31.9585 50.1151H31.9523V50.1198L28.9608 55.3038L25.9568 50.1432L29.0029 44.8593L37.9416 29.3789H43.9246" fill="#008AAA"/>
<path d="M64.8792 65.65H82.9999L82.989 34.5488H64.8792V65.65Z" fill="#D4D4D4"/>
<path d="M64.8792 50.1562V65.6522H82.9671V50.1562H64.8792Z" fill="#919191"/>
<path d="M43.9276 70.8557H37.9399L28.9607 55.302L31.9522 50.1211L43.9276 70.8557Z" fill="#00B8E3"/>
<path d="M67.8675 50.1144L55.8998 70.8506C54.7997 69.2339 52.9146 65.6541 52.9146 65.6541L61.8922 50.1113L67.8675 50.1144Z" fill="#008AAA"/>
<path d="M61.877 70.8497L55.9002 70.8482L67.8694 50.112L70.8593 44.9342L73.8586 50.1463M67.8678 50.1135H61.8941L52.9133 34.5505L55.8861 29.3789L63.155 38.6203L67.8678 50.1135Z" fill="#00B8E3"/>
<path d="M70.8593 44.9314V44.9361L67.8678 50.1139L55.8877 29.3809L61.8817 29.384L70.8593 44.9314Z" fill="#33C6E9"/>
</svg>
