<svg width="100" height="100" viewBox="0 0 100 100" fill="none" xmlns="http://www.w3.org/2000/svg">
<path fill-rule="evenodd" clip-rule="evenodd" d="M50 100C77.6142 100 100 77.6142 100 50C100 22.3858 77.6142 0 50 0C22.3858 0 0 22.3858 0 50C0 77.6142 22.3858 100 50 100Z" fill="black"/>
<path d="M60 32.5H39V45.0217H48.3333V68.5H60V32.5Z" fill="white"/>
<path fill-rule="evenodd" clip-rule="evenodd" d="M50 99C77.062 99 99 77.062 99 50C99 22.938 77.062 1 50 1C22.938 1 1 22.938 1 50C1 77.062 22.938 99 50 99ZM50 100C77.6142 100 100 77.6142 100 50C100 22.3858 77.6142 0 50 0C22.3858 0 0 22.3858 0 50C0 77.6142 22.3858 100 50 100Z" fill="#F8FAFA" fill-opacity="0.08"/>
</svg>
