<svg width="100" height="100" viewBox="0 0 100 100" fill="none" xmlns="http://www.w3.org/2000/svg">
<path fill-rule="evenodd" clip-rule="evenodd" d="M50 100C77.6142 100 100 77.6142 100 50C100 22.3858 77.6142 0 50 0C22.3858 0 0 22.3858 0 50C0 77.6142 22.3858 100 50 100Z" fill="#1F154A"/>
<path d="M31 68.3214V31.6786H40.9863V68.3214H31ZM49.6719 68.3214C52.9522 68.3214 55.7268 67.9827 57.9941 66.3772C60.2613 64.7181 61.9731 62.4701 63.1309 59.6339C64.3369 56.7439 64.9413 53.5061 64.9414 49.9205C64.9414 46.2275 64.337 42.9882 63.1309 40.2051C61.9249 37.3691 60.1889 35.1748 57.9219 33.6228C55.6545 32.0173 52.904 31.6786 49.6719 31.6786H41V21.5H49.6719C55.268 21.5001 59.948 22.7839 63.7109 25.3527C67.4739 27.8681 70.2962 31.2938 72.1777 35.6287C74.0593 39.9104 75 44.6754 75 49.9205C74.9999 55.7004 73.9631 60.7319 71.8887 65.0134C69.8141 69.2949 66.8699 72.6125 63.0586 74.9673C59.2957 77.322 54.8337 78.4999 49.6719 78.5H41V68.3214H49.6719Z" fill="#00FF5A"/>
</svg>
