<svg width="100" height="101" viewBox="0 0 100 101" fill="none" xmlns="http://www.w3.org/2000/svg">
<path fill-rule="evenodd" clip-rule="evenodd" d="M50 100.5C77.6142 100.5 100 78.1142 100 50.5C100 22.8858 77.6142 0.5 50 0.5C22.3858 0.5 0 22.8858 0 50.5C0 78.1142 22.3858 100.5 50 100.5Z" fill="#F8FAFA" fill-opacity="0.08"/>
<path fill-rule="evenodd" clip-rule="evenodd" d="M50 99.5C77.062 99.5 99 77.562 99 50.5C99 23.438 77.062 1.5 50 1.5C22.938 1.5 1 23.438 1 50.5C1 77.562 22.938 99.5 50 99.5ZM50 100.5C77.6142 100.5 100 78.1142 100 50.5C100 22.8858 77.6142 0.5 50 0.5C22.3858 0.5 0 22.8858 0 50.5C0 78.1142 22.3858 100.5 50 100.5Z" fill="#242B2E" fill-opacity="0.16"/>
<path d="M41.3494 46.0598C41.3494 46.0598 46.9682 42.7266 55.9913 39.4602C60.8168 37.727 65.6424 36.8603 69.0798 36.427C67.1628 35.8604 65.3449 35.3604 63.9898 34.9938C59.6931 33.7939 53.4794 32.3273 48.2572 31.5273C48.0258 32.7939 47.3978 34.8271 45.9105 37.7603C43.8613 41.76 41.3494 46.0598 41.3494 46.0598Z" fill="#0C77BD"/>
<path d="M38.8377 50.7266C37.8131 51.0266 34.4087 59.8927 32.657 64.7924C35.863 67.0256 39.1682 69.0255 42.242 70.3587C48.4226 73.0919 50.3396 71.9586 54.1736 70.2254C56.9169 68.9922 61.2137 66.059 64.9816 63.2925C60.3874 60.2594 54.6364 56.5929 51.3312 55.0264C45.1505 52.0599 40.325 50.26 38.8377 50.7266Z" fill="#0C77BD"/>
<path d="M44.126 31.0615C39.3996 30.7282 38.6724 31.8282 37.747 32.4614C35.3342 33.7947 25.2534 39.861 20.3948 44.1274C15.7676 48.1938 16.5608 50.727 18.7092 53.2602C20.4609 55.3267 23.5017 57.7599 28.2612 61.5263C28.4925 61.693 28.6908 61.8596 28.9222 62.0263C30.8392 57.7599 34.9706 48.4938 37.0199 44.1607C39.3996 39.0944 42.6717 33.4947 44.126 31.0615Z" fill="#0C77BD"/>
<path d="M85.4405 41.7277C83.7879 40.8611 82.3336 40.3945 81.0446 39.9612C80.3836 39.7612 78.698 39.2612 76.5826 38.6279C72.8148 39.1279 66.568 40.0612 60.5195 41.5277C54.2397 43.0277 43.7292 48.194 43.7292 48.194C43.7292 48.194 57.0491 52.5271 69.5096 59.8266C69.9393 59.4933 70.3028 59.1933 70.6664 58.8933C74.5334 55.6935 84.3498 47.4607 86.4651 43.8943C86.9278 42.9943 86.4982 42.261 85.4405 41.7277Z" fill="#0C77BD"/>
</svg>
