<svg width="100" height="101" viewBox="0 0 100 101" fill="none" xmlns="http://www.w3.org/2000/svg">
<path fill-rule="evenodd" clip-rule="evenodd" d="M50 100.5C77.6142 100.5 100 78.1142 100 50.5C100 22.8858 77.6142 0.5 50 0.5C22.3858 0.5 0 22.8858 0 50.5C0 78.1142 22.3858 100.5 50 100.5Z" fill="#F8FAFA"/>
<path fill-rule="evenodd" clip-rule="evenodd" d="M50 99.5C77.062 99.5 99 77.562 99 50.5C99 23.438 77.062 1.5 50 1.5C22.938 1.5 1 23.438 1 50.5C1 77.562 22.938 99.5 50 99.5ZM50 100.5C77.6142 100.5 100 78.1142 100 50.5C100 22.8858 77.6142 0.5 50 0.5C22.3858 0.5 0 22.8858 0 50.5C0 78.1142 22.3858 100.5 50 100.5Z" fill="#242B2E" fill-opacity="0.16"/>
<path d="M51.1936 28.3999C50.4715 27.6671 49.3554 27.6671 48.6333 28.3999C47.9441 29.0993 47.9771 30.2654 48.6662 30.9661L63.4086 45.927C64.1307 46.6598 65.2468 46.6598 65.9702 45.927C66.6923 45.1942 66.6594 44.095 65.9373 43.3609L51.1949 28.3999H51.1936Z" fill="#25493E"/>
<path d="M63.8884 50.9776C63.8884 49.9412 63.0991 49.187 62.0779 49.187H41.2292C40.208 49.187 39.4187 49.988 39.4187 51.0244C39.4187 52.0607 40.2542 52.8149 41.2292 52.8149H62.0779C63.0991 52.8149 63.8884 52.0139 63.8884 50.9776Z" fill="#25493E"/>
<path d="M63.4087 56.075L48.6663 71.0359C47.9442 71.7687 47.9442 72.9014 48.6663 73.6342C49.3554 74.3335 50.5044 74.3001 51.1949 73.6007L65.9373 58.6398C66.6594 57.907 66.6594 56.7744 65.9373 56.0403C65.2152 55.3075 64.1321 55.3409 63.4087 56.0737V56.075Z" fill="#25493E"/>
<path d="M44.949 24.6289C45.7673 23.7985 45.7673 22.4532 44.949 21.6228C44.1307 20.7924 42.8051 20.7924 41.9868 21.6228C41.1685 22.4532 41.1685 23.7985 41.9868 24.6289C42.8051 25.4593 44.1307 25.4593 44.949 24.6289Z" fill="#25493E"/>
<path d="M32.2425 53.1207C33.396 53.0374 34.2645 52.0209 34.1825 50.8504C34.1004 49.6798 33.0988 48.7984 31.9453 48.8817C30.7918 48.965 29.9233 49.9814 30.0054 51.152C30.0874 52.3226 31.0891 53.204 32.2425 53.1207Z" fill="#25493E"/>
<path d="M41.9882 77.373C41.1699 78.2034 41.1699 79.5486 41.9882 80.3791C42.8065 81.2095 44.1321 81.2095 44.9503 80.3791C45.7686 79.5486 45.7686 78.2034 44.9503 77.373C44.1321 76.5426 42.8065 76.5426 41.9882 77.373Z" fill="#25493E"/>
<path d="M69.4554 49.4985C68.6372 50.3289 68.6372 51.6741 69.4554 52.5046C70.2737 53.335 71.5993 53.335 72.4176 52.5046C73.2359 51.6741 73.2359 50.3289 72.4176 49.4985C71.5993 48.6681 70.2737 48.6681 69.4554 49.4985Z" fill="#25493E"/>
</svg>
